<?xml version="1.0" encoding="UTF-8"?>
<!DOCTYPE svg PUBLIC "-//W3C//DTD SVG 1.1//EN" "http://www.w3.org/Graphics/SVG/1.1/DTD/svg11.dtd">
<!-- Creator: CorelDRAW 2021 (64-Bit) -->
<svg xmlns="http://www.w3.org/2000/svg" xml:space="preserve" width="16.2493mm" height="16.5017mm" version="1.1" style="shape-rendering:geometricPrecision; text-rendering:geometricPrecision; image-rendering:optimizeQuality; fill-rule:evenodd; clip-rule:evenodd"
viewBox="0 0 207.68 210.9"
 xmlns:xlink="http://www.w3.org/1999/xlink"
 xmlns:xodm="http://www.corel.com/coreldraw/odm/2003">
 <defs>
  <style type="text/css">
   <![CDATA[
    .fil0 {fill:#0E5706;fill-rule:nonzero}
   ]]>
  </style>
 </defs>
 <g id="Layer_x0020_1">
  <metadata id="CorelCorpID_0Corel-Layer"/>
  <g id="_1835737433632">
   <path class="fil0" d="M24.98 0.53c-1.73,0.54 -3.01,1.57 -7.8,6.27 -6.85,6.77 -7.88,8.42 -7.84,12.67 0,4 0.83,5.53 5.36,10.15l3.88 4 -1.03 2.06c-2.23,4.41 -2.31,9.82 -0.25,14.24l0.91 1.9 -2.27 2.81c-8.5,10.56 -13.9,23.39 -15.6,36.97 -0.7,5.82 -0.29,17.91 0.83,23.02 1.07,4.91 2.23,8.75 3.8,12.63 0.95,2.23 1.53,3.05 2.39,3.38 2.23,0.95 4.46,-0.87 4.04,-3.22 -0.12,-0.58 -0.78,-2.72 -1.53,-4.75 -2.48,-6.93 -3.34,-11.68 -3.59,-19.89 -0.16,-4.75 -0.04,-8.79 0.25,-10.93 1.2,-8.54 4.54,-18.36 8.5,-25 2.48,-4.21 6.81,-10.03 7.38,-10.03 0.25,0 3.96,3.51 8.25,7.8l7.84 7.84 -1.73 2.43c-7.92,11.3 -10.15,26.53 -5.69,39.53 2.48,7.3 7.22,14.44 12.71,19.14l3.14 2.68 -1.36 1.16c-1.73,1.44 -3.63,4 -8.09,10.97 -1.94,3.05 -3.71,5.61 -3.96,5.69 -1.24,0.41 -9.98,-8.05 -14.19,-13.74 -3.05,-4.13 -4.08,-4.74 -6.11,-3.67 -1.44,0.7 -1.98,2.56 -1.24,4 0.78,1.49 3.96,5.61 6.89,8.91 2.27,2.56 6.31,6.27 10.31,9.45l0.99 0.78 -5.16 8 -5.2 8.05 -2.89 0.74c-6.81,1.77 -12.17,7.38 -13.62,14.23 -0.7,3.3 -0.58,11.51 0.21,13.78 0.7,2.06 2.76,4.46 4.83,5.57 1.24,0.7 5.61,0.74 75.38,0.74l74.06 0 2.1 -1.11c2.64,-1.4 5.28,-4.33 6.11,-6.81 1.32,-3.84 0.54,-9.86 -1.81,-14.56 -1.77,-3.55 -5.98,-7.84 -9.45,-9.65 -5.24,-2.72 -4.83,-2.72 -37.46,-2.72l-29.42 0 0 -5.57 0 -5.53 24.26 -0.12c23.89,-0.12 24.26,-0.12 25.87,-1.03 5.4,-2.89 6.6,-9.28 3.18,-16.63 -1.4,-2.97 -5.78,-7.34 -8.75,-8.75 -4.08,-1.9 -5.24,-1.98 -30.37,-1.98l-23.72 0 -1.32 -0.99c-3.75,-2.81 -8.87,-4.37 -14.27,-4.37 -3.47,0 -4.99,0.25 -9.32,1.44 -1.24,0.33 -6.77,-4.21 -9.94,-8.25 -3.09,-3.84 -5.9,-9.32 -7.26,-14.03 -0.83,-2.81 -0.95,-4.25 -0.95,-9.9 0,-5.65 0.12,-7.1 0.95,-9.9 1.07,-3.84 4.08,-10.11 5.73,-12.09l1.16 -1.36 7.92 7.96 7.96 7.96 -0.62 2.02c-0.78,2.56 -0.78,3.3 0.04,6.07 0.58,1.98 1.28,2.85 6.31,7.92 3.09,3.14 6.31,6.11 7.22,6.56 2.35,1.2 5.61,1.44 7.96,0.54 1.65,-0.62 4.08,-2.85 15.27,-13.94 7.3,-7.3 13.37,-13.16 13.45,-13.04 0.12,0.08 0.5,1.65 0.91,3.46 5.86,27.15 33.87,44.27 60.98,37.38 17.62,-4.54 31.19,-18.11 36.06,-36.23 1.03,-3.71 1.11,-4.7 1.11,-12.09 0.04,-7.14 -0.08,-8.46 -0.95,-11.76 -1.77,-6.85 -5.86,-15.31 -9.08,-18.73 -1.36,-1.44 -3.01,-1.69 -4.5,-0.62 -1.53,1.03 -1.2,3.01 0.99,6.23 5.61,8.17 7.84,16.09 7.47,26.53 -0.29,8.91 -2.31,15.31 -7.1,22.49 -11.88,17.86 -35.28,24.51 -54.54,15.47 -14.03,-6.56 -24.14,-20.63 -25.17,-34.99l-0.25 -3.46 4.99 -4.99c2.93,-2.93 5.28,-5.65 5.65,-6.56 0.87,-2.1 0.78,-5.9 -0.17,-8 -0.45,-0.95 -1.49,-2.48 -2.31,-3.42l-1.53 -1.69 2.1 -2.85c5.78,-7.76 14.36,-13.41 24.8,-16.21 4.79,-1.32 15.35,-1.32 20.38,0.04 5.03,1.32 9.24,3.14 13.62,5.94 2.06,1.28 3.88,2.35 4.04,2.35 0.78,0 2.72,-1.24 2.97,-1.86 0.99,-2.6 -1.28,-4.83 -8.62,-8.46 -8.25,-4.08 -15.84,-5.69 -24.71,-5.24 -15.76,0.83 -29.29,8.33 -38.91,21.7 -0.04,0.08 -0.91,-0.58 -1.94,-1.53 -0.99,-0.91 -2.39,-1.98 -3.14,-2.35 -1.94,-0.99 -5.61,-1.24 -7.72,-0.49l-1.69 0.58 -19.97 -19.97c-18.28,-18.32 -20.18,-20.09 -22.86,-21.41 -4.87,-2.43 -11.02,-2.31 -15.27,0.29l-1.24 0.74 -3.51 -3.51c-1.9,-1.94 -4.37,-4 -5.53,-4.58 -2.6,-1.32 -6.19,-1.61 -9.04,-0.7l0 0zm6.11 6.15c0.7,0.33 2.68,2.02 4.37,3.71l3.09 3.09 -7.84 7.84 -7.84 7.84 -3.38 -3.38c-5.78,-5.73 -5.69,-6.81 1.07,-13.7 5.94,-6.06 7.47,-6.85 10.52,-5.4l0 0zm26.32 7.34c0.99,0.58 10.44,9.74 21.08,20.38l19.27 19.31 -17.33 17.33 -17.33 17.33 -19.64 -19.6c-13.53,-13.53 -19.89,-20.13 -20.42,-21.25 -1.2,-2.68 -1.36,-4.74 -0.58,-7.47 0.66,-2.35 1.07,-2.81 12.09,-13.9 13.33,-13.37 13.62,-13.62 18.53,-13.33 1.81,0.12 3.09,0.45 4.33,1.2l0 -0zm51.82 41.3c0.62,0.33 3.22,2.72 5.78,5.32 4.46,4.58 4.62,4.83 4.62,6.56l0 1.77 -20.79 20.79 -20.79 20.79 -1.77 -0.25c-1.57,-0.21 -2.23,-0.74 -6.6,-5.08 -5.12,-5.11 -6.02,-6.44 -5.57,-8.29 0.21,-0.78 6.77,-7.63 19.97,-20.92 10.81,-10.85 20.26,-20.09 20.92,-20.51 1.49,-0.95 2.72,-0.99 4.25,-0.21l0 0zm-40.68 82.8c6.31,2.1 10.81,6.93 12.5,13.37 0.49,1.9 0.62,4.91 0.62,13.49l0 11.06 -27.27 0 -27.27 0 0.58 -0.95c10.56,-16.67 19.93,-30.86 21.37,-32.31 2.14,-2.19 4.66,-3.75 7.63,-4.79 3.01,-1.03 8.58,-0.99 11.84,0.12l-0 0zm61.06 5.86c4.04,1.98 6.77,5.86 7.22,10.32 0.16,1.73 0.08,2.35 -0.62,3.18l-0.83 1.03 -23.76 0.12 -23.77 0.08 0 -2.76c0,-4.21 -1.03,-7.88 -3.63,-13.04 -0.08,-0.16 9.57,-0.25 21.45,-0.21l21.58 0.12 2.35 1.16 0 0zm18.94 38.91c5.57,1.65 9.65,5.78 11.3,11.47 1.36,4.66 0.37,8.29 -2.72,9.82 -1.32,0.7 -5.69,0.74 -73.52,0.74l-72.16 0 -1.2 -1.2c-1.2,-1.2 -1.2,-1.28 -1.2,-5.9 0,-7.1 1.49,-10.81 5.32,-13.37 3.55,-2.31 -0.33,-2.19 68.37,-2.23 57.02,0 63.79,0.08 65.81,0.66l0 0z"/>
   <path class="fil0" d="M56.54 147.45c-4.66,2.31 -6.89,7.92 -5.2,12.95 2.39,7.01 11.39,9.49 17.08,4.66 4.37,-3.67 4.95,-10.4 1.28,-15.02 -2.93,-3.67 -8.7,-4.83 -13.16,-2.6zm8.05 6.48c1.65,1.65 1.86,3.43 0.62,5.45 -2.35,3.84 -8.29,1.94 -8.29,-2.68 0,-2.1 2.23,-4.17 4.54,-4.17 1.4,0 1.98,0.25 3.14,1.4l0 0z"/>
   <path class="fil0" d="M154.28 49.38c-1.07,0.49 -2.85,1.9 -4.21,3.42l-2.35 2.56 -4.25 0c-4.87,0.04 -6.64,0.66 -8.99,3.34 -2.19,2.52 -2.6,3.96 -2.31,8.17l0.25 3.63 -3.05 2.97c-3.51,3.38 -4.13,4.79 -3.88,8.91 0.16,3.26 1.4,5.45 4.17,7.47 2.52,1.82 2.76,2.48 2.52,6.56 -0.21,3.26 -0.16,3.67 0.95,5.78 2.06,4.04 6.64,6.35 10.77,5.45 2.23,-0.54 3.63,-0.21 4.74,1.07 0.5,0.58 1.69,1.86 2.64,2.85 4.42,4.41 11.68,3.63 15.35,-1.69 1.53,-2.23 2.93,-2.76 5.65,-2.27 4.54,0.87 8.83,-1.24 11.02,-5.4 1.11,-2.15 1.2,-2.48 0.99,-5.78 -0.29,-4.08 -0.04,-4.66 2.6,-6.64 2.56,-1.94 4.13,-5.08 4.13,-8.29 0,-3.38 -0.83,-5.03 -4.17,-8.25l-2.89 -2.76 0.29 -3.47c0.25,-3.01 0.16,-3.71 -0.62,-5.49 -1.07,-2.43 -2.56,-4.04 -4.79,-5.24 -1.4,-0.78 -2.23,-0.91 -5.86,-0.83l-4.21 0.08 -2.15 -2.48c-2.6,-3.01 -4.66,-4.13 -8,-4.37 -1.9,-0.12 -2.93,0.04 -4.33,0.7l0 0zm5.78 5.78c0.41,0.21 1.4,1.32 2.19,2.43 1.03,1.4 2.15,2.35 3.8,3.14 2.1,1.07 2.6,1.11 5.69,0.91 5.53,-0.37 6.73,0.74 6.27,5.69 -0.49,4.99 0.49,7.05 5.32,11.18 1.2,1.03 1.49,1.57 1.49,2.76 0,2.1 -0.29,2.6 -2.48,4.17 -1.11,0.78 -2.52,2.35 -3.18,3.43 -1.07,1.81 -1.16,2.31 -1.16,6.11 0,2.52 -0.21,4.46 -0.49,5.03 -0.74,1.24 -2.81,1.81 -5.08,1.36 -3.92,-0.74 -7.92,0.87 -10.36,4.25 -2.64,3.63 -5.49,3.63 -7.92,-0.08 -2.06,-3.1 -6.44,-4.87 -10.31,-4.13 -1.49,0.25 -2.35,0.21 -3.38,-0.21 -1.98,-0.87 -2.43,-1.9 -2.1,-5.28 0.54,-5.08 -0.62,-7.51 -5.45,-11.51 -1.11,-0.91 -1.32,-1.4 -1.32,-2.85 0,-1.36 0.25,-1.94 1.2,-2.81 0.7,-0.62 1.86,-1.69 2.6,-2.39 2.39,-2.19 3.01,-3.92 3.01,-8.7 0,-3.84 0.08,-4.29 0.95,-5.16 0.87,-0.87 1.24,-0.95 4.83,-0.83 4.62,0.16 6.68,-0.54 8.91,-3.01 3.38,-3.75 3.59,-3.92 4.91,-3.92 0.7,0 1.65,0.17 2.06,0.41l0 0z"/>
  </g>
 </g>
</svg>
