<?xml version="1.0" encoding="UTF-8"?>
<!DOCTYPE svg PUBLIC "-//W3C//DTD SVG 1.1//EN" "http://www.w3.org/Graphics/SVG/1.1/DTD/svg11.dtd">
<!-- Creator: CorelDRAW 2021 (64-Bit) -->
<svg xmlns="http://www.w3.org/2000/svg" xml:space="preserve" width="11.0271mm" height="6.321mm" version="1.1" style="shape-rendering:geometricPrecision; text-rendering:geometricPrecision; image-rendering:optimizeQuality; fill-rule:evenodd; clip-rule:evenodd"
viewBox="0 0 340.87 195.4"
 xmlns:xlink="http://www.w3.org/1999/xlink"
 xmlns:xodm="http://www.corel.com/coreldraw/odm/2003">
 <defs>
  <style type="text/css">
   <![CDATA[
    .fil0 {fill:#4D4D4D;fill-rule:nonzero}
   ]]>
  </style>
 </defs>
 <g id="Layer_x0020_1">
  <metadata id="CorelCorpID_0Corel-Layer"/>
  <g id="_1835988997568">
   <path class="fil0" d="M219.35 0.42c-11.39,1.53 -25.91,7.33 -33.84,13.59 -4.66,3.73 -5.73,5.6 -4.6,8.53 0.67,1.8 0.6,2.27 -0.6,3.53l-1.33 1.47 -4.73 -2c-11.19,-4.73 -21.52,-6.73 -34.51,-6.73 -23.05,0.07 -43.77,8.4 -60.55,24.52 -6.33,6.06 -12.32,13.79 -15.92,20.38l-2.46 4.53 -3.67 0.4c-6.06,0.73 -14.59,3 -19.72,5.33 -7.06,3.26 -11.66,6.4 -17.85,12.32 -8.33,7.99 -13.32,15.99 -16.65,26.51 -4.66,14.92 -3.73,30.24 2.73,45.23 2.8,6.33 4.33,7.79 8.19,7.66 2.2,-0.13 2.8,0.2 4.06,1.93 1.2,1.73 1.33,2.33 0.67,3.66 -0.4,0.93 -0.73,2.27 -0.73,2.93 0,2.06 4.33,6.33 10.26,10.33 10.92,7.26 21.58,10.46 35.04,10.59 11.99,0.07 21.38,-2.33 31.44,-7.99l3.93 -2.27 2.6 1.34c12.39,6.33 29.85,9.92 43.63,9.06 13.52,-0.93 28.65,-5.26 38.37,-11.06l4.53 -2.66 5 3.6c9.59,6.86 19.39,9.93 31.71,9.93 10.13,-0.07 16.26,-1.47 24.98,-5.86 16.32,-8.19 27.11,-23.58 29.64,-42.37 0.4,-3.07 0.8,-5.66 0.87,-5.66 0.06,-0.07 2.26,0.4 4.79,1.07 16.79,4.46 36.57,-2.4 46.7,-16.12 3.26,-4.46 3.6,-6.2 1.53,-8.79 -2,-2.53 -1.06,-5.2 2,-5.4 3.46,-0.27 4.73,-2.13 5.6,-7.93 3.4,-23.58 -14.72,-47.23 -38.44,-50.23l-4 -0.47 -2.4 -6.46c-8.79,-23.18 -28.11,-39.97 -52.09,-45.23 -7.06,-1.53 -17.79,-2.06 -24.18,-1.2l0 0zm-65.82 30.84c16.12,2.87 30.38,10.53 42.17,22.65 5.6,5.8 7,6.6 9.93,5.73 1.86,-0.53 2.13,-0.4 4.13,2.8 1.8,2.73 2,3.53 1.4,4.46 -2.27,3.13 -2.33,4.2 -0.14,9.93 1.2,3.07 2.8,8.19 3.67,11.33 2.2,7.93 2.66,8.26 11.46,8.86 12.59,0.87 20.72,4.4 28.84,12.59 8.59,8.53 12.79,18.65 12.86,30.64 0,12.26 -3.86,21.65 -12.53,30.38 -6.19,6.26 -11.59,9.52 -19.32,11.66 -6.6,1.8 -15.99,1.93 -22.32,0.27 -5.86,-1.53 -13.65,-5.66 -18.12,-9.66 -6.06,-5.39 -7.13,-5.46 -13.92,-1.13 -12.72,8.13 -25.58,11.86 -41.23,11.92 -13.19,0.07 -23.12,-2.33 -35.71,-8.53 -6.79,-3.33 -7.39,-3.33 -11.93,-0.27 -6.79,4.6 -15.05,7.66 -23.38,8.66 -4.79,0.53 -5.53,0.47 -8.59,-0.93 -4.4,-2 -10.92,-7 -13.79,-10.53 -8.13,-9.93 -11.79,-21.78 -11.99,-38.5 -0.13,-9.79 0.8,-14.59 3.86,-21.05 5.93,-12.59 18.38,-21.58 35.77,-26.05l7.13 -1.8 1.4 -4.33c6.19,-18.79 21.45,-35.44 43.23,-47.3l5 -2.73 8.33 0c4.6,0 10.79,0.4 13.79,0.93l0 0z"/>
   <path class="fil0" d="M170.06 115.26c-3.6,3.53 -1.06,9.66 4,9.66 3.26,0 5.66,-2.4 5.66,-5.66 0,-3.26 -2.4,-5.66 -5.66,-5.66 -1.66,0 -2.93,0.53 -4,1.67z"/>
   <path class="fil0" d="M210.03 115.33c-1.8,1.93 -2.13,4.2 -0.87,6.46 2.8,5.33 10.53,3.46 10.53,-2.53 0,-5.2 -6.19,-7.66 -9.66,-3.93l0 0z"/>
   <path class="fil0" d="M169.53 134.25c-3.33,2.66 -2.93,6.2 1.33,10.26 9.53,8.99 26.71,11.19 39.17,4.93 4.33,-2.2 9,-5.86 10.06,-7.99 1.33,-2.53 0.67,-5.46 -1.53,-7.2 -2.66,-2.06 -4.8,-1.66 -9.79,2 -5.46,4 -8.39,4.93 -15.05,4.93 -5.66,0 -10.06,-1.6 -15.59,-5.86 -3.6,-2.73 -6.06,-3.06 -8.59,-1.06l0 -0z"/>
  </g>
 </g>
</svg>
