<?xml version="1.0" encoding="UTF-8"?>
<!DOCTYPE svg PUBLIC "-//W3C//DTD SVG 1.1//EN" "http://www.w3.org/Graphics/SVG/1.1/DTD/svg11.dtd">
<!-- Creator: CorelDRAW 2021 (64-Bit) -->
<svg xmlns="http://www.w3.org/2000/svg" xml:space="preserve" width="16.2492mm" height="16.2496mm" version="1.1" style="shape-rendering:geometricPrecision; text-rendering:geometricPrecision; image-rendering:optimizeQuality; fill-rule:evenodd; clip-rule:evenodd"
viewBox="0 0 485.12 485.14"
 xmlns:xlink="http://www.w3.org/1999/xlink"
 xmlns:xodm="http://www.corel.com/coreldraw/odm/2003">
 <defs>
  <style type="text/css">
   <![CDATA[
    .fil0 {fill:#0E5706;fill-rule:nonzero}
   ]]>
  </style>
 </defs>
 <g id="Layer_x0020_1">
  <metadata id="CorelCorpID_0Corel-Layer"/>
  <g id="_1835929391840">
   <path class="fil0" d="M226.64 0.81c-34.52,3.7 -67.14,19.25 -91.88,44.09 -29.58,29.49 -45.14,67.32 -45.14,109.43 0,37.64 11.85,75.29 36.98,117.58 3.7,6.26 15.93,24.65 17.73,26.74 0.76,0.76 1.33,1.71 1.33,2.09 0,0.28 -16.21,0.76 -36.03,0.85 -31.29,0.28 -36.12,0.47 -37.45,1.8 -2.27,2.27 -49.78,117.86 -49.78,121.18 0,5.4 6.45,8.63 10.72,5.31 0.95,-0.67 3.41,-5.22 5.4,-10.15l3.7 -8.82 24.27 -0.29 24.18 -0.19 -1.42 3.51c-0.85,1.99 -6.54,15.64 -12.61,30.44l-11 26.74 -24.08 0c-18.87,0 -23.99,-0.29 -23.61,-1.23 0.28,-0.57 2.08,-5.12 3.98,-10.05 2.85,-7.02 3.41,-9.39 2.75,-11.28 -1.23,-3.51 -5.22,-5.59 -8.63,-4.46 -3.04,1.04 -5.03,4.65 -12.14,22.38 -5.12,12.42 -5.12,15.27 -0.47,17.64 1.9,0.95 50.45,1.14 240.19,0.95l237.91 -0.19 1.8 -2.27c0.95,-1.23 1.8,-3.04 1.8,-3.98 0,-2.66 -70.64,-173.43 -72.54,-175.23 -1.33,-1.33 -5.97,-1.52 -37.45,-1.8 -19.82,-0.1 -36.03,-0.57 -36.03,-0.85 0,-0.38 0.57,-1.33 1.33,-2.09 1.8,-2.09 14.03,-20.48 17.73,-26.74 25.13,-42.29 36.98,-79.93 36.98,-117.58 0,-42.1 -15.55,-79.93 -45.14,-109.43 -32.62,-32.62 -78.04,-48.83 -123.36,-44.09l0 0zm29.11 14.22c45.14,4.65 84.2,30.06 106.96,69.69 17.92,31.29 22.85,67.7 14.13,105.73 -10.05,44.38 -37.08,91.41 -80.13,139.48 -15.46,17.35 -51.68,52.06 -54.33,52.06 -3.32,0 -48.74,-44.75 -64,-63.05 -43.14,-51.58 -66.94,-98.43 -73.49,-144.41 -1.52,-11 -1.33,-31.2 0.38,-41.91 10.91,-67.61 67.14,-116.82 135.31,-118.43 2.94,0 9.77,0.38 15.17,0.85l0 0zm-126.68 302.2c-0.28,0.95 -4.27,10.52 -8.72,21.33l-8.15 19.72 -24.08 0c-13.84,0 -23.99,-0.38 -23.8,-0.85 0.19,-0.47 4.08,-10.05 8.72,-21.34l8.53 -20.48 24.09 0c22.57,0 24.08,0.1 23.42,1.61zm38.02 10.43c19.73,23.33 63.91,66.19 72.54,70.36 3.98,1.99 5.97,0.76 22.09,-13.46l13.66 -12.04 41.34 0c40.11,0 41.44,-0.09 43.24,-1.9 2.56,-2.56 2.47,-7.68 -0.09,-10.05 -1.9,-1.71 -4.08,-1.8 -36.13,-2.09l-34.14 -0.28 8.34 -8.72c4.65,-4.84 13.27,-14.41 19.25,-21.33l10.72 -12.52 37.64 0 37.64 0 8.54 20.48c4.65,11.29 8.53,20.86 8.72,21.24 0.19,0.47 -8.63,0.95 -19.63,1.14 -19.06,0.28 -20.01,0.38 -22,2.37 -1.33,1.33 -2.09,3.13 -1.99,5.12 0.19,5.88 0.66,5.97 26.45,6.54l23.42 0.47 4.93 11.57 4.93 11.66 -74.15 0c-80.69,0 -77.37,-0.19 -78.7,5.31 -0.38,1.33 -0.38,3.22 -0.1,4.17 0.28,0.95 16.88,16.02 36.79,33.38l36.13 31.58 -20.58 0.28 -20.58 0.19 -73.11 -62.2c-40.3,-34.23 -74.34,-62.77 -75.86,-63.25 -3.6,-1.42 -6.83,0.19 -8.72,4.27 -1.04,2.27 -46.75,112.55 -49.69,119.95 -0.38,0.95 -3.98,1.23 -13.65,1.23 -7.21,0 -13.18,-0.09 -13.18,-0.28 0,-0.19 5.88,-14.6 13.09,-32.05 7.21,-17.45 13.46,-32.9 13.84,-34.32 0.47,-2.18 0.1,-3.13 -2.18,-5.41l-2.75 -2.84 -27.5 0 -27.5 0 4.93 -11.66 4.93 -11.57 30.82 -0.28c30.63,-0.19 30.91,-0.19 32.81,-2.37 1.04,-1.14 6.54,-13.37 12.14,-27.21 5.69,-13.84 10.72,-25.7 11.19,-26.36 0.57,-0.66 3.13,-1.14 6.35,-1.14l5.5 0 10.24 12.04 0 0zm63.44 89.89l62.39 53.1 -42.86 0.28c-23.61,0.1 -61.82,0.1 -84.96,0l-42.01 -0.28 21.9 -53.29c12.14,-29.4 22.28,-53.29 22.57,-53.1 0.28,0.1 28.64,24.09 62.96,53.29l0 0zm224.35 23.13c6.73,16.31 12.23,29.87 12.23,30.06 0,0.19 -19.91,0.38 -44.28,0.38l-44.38 -0.09 -34.14 -29.87c-18.78,-16.5 -34.32,-30.15 -34.52,-30.34 -0.28,-0.19 29.58,-0.29 66.19,-0.19l66.57 0.28 12.33 29.77 0 0z"/>
   <path class="fil0" d="M234.41 89c-10.9,1.33 -23.71,6.35 -29.11,11.47 -3.42,3.22 -3.6,7.3 -0.57,10.14 3.04,2.94 5.22,2.65 13.66,-1.71 9.2,-4.65 14.6,-5.88 24.94,-5.88 10.05,0.1 18.58,2.56 26.45,7.87 27.88,18.58 31.67,56.23 8.06,79.84 -24.08,24.08 -64.48,17.83 -80.41,-12.52 -7.3,-13.84 -7.97,-27.21 -2.37,-43.33l3.13 -8.91 -1.9 -2.56c-2.47,-3.32 -7.3,-4.08 -9.96,-1.61 -2.28,2.08 -5.12,8.25 -7.21,15.93 -1.14,3.98 -1.61,9.29 -1.61,17.16 0.1,9.67 0.47,12.52 2.56,18.96 3.51,10.72 8.53,18.78 16.78,27.12 11.95,12.04 28.45,18.87 45.51,18.87 28.26,0 53.58,-18.68 62.11,-45.89 5.22,-16.31 3.89,-32.81 -3.79,-48.45 -6.92,-14.32 -16.21,-23.52 -30.34,-30.34 -11.85,-5.69 -23.33,-7.68 -35.94,-6.16l0 0z"/>
  </g>
 </g>
</svg>
