<?xml version="1.0" encoding="UTF-8"?>
<!DOCTYPE svg PUBLIC "-//W3C//DTD SVG 1.1//EN" "http://www.w3.org/Graphics/SVG/1.1/DTD/svg11.dtd">
<!-- Creator: CorelDRAW 2021 (64-Bit) -->
<svg xmlns="http://www.w3.org/2000/svg" xml:space="preserve" width="5.7128mm" height="5.7128mm" version="1.1" style="shape-rendering:geometricPrecision; text-rendering:geometricPrecision; image-rendering:optimizeQuality; fill-rule:evenodd; clip-rule:evenodd"
viewBox="0 0 22.19 22.19"
 xmlns:xlink="http://www.w3.org/1999/xlink"
 xmlns:xodm="http://www.corel.com/coreldraw/odm/2003">
 <defs>
  <style type="text/css">
   <![CDATA[
    .fil1 {fill:black}
    .fil2 {fill:#B2B5C2}
    .fil0 {fill:#FFC66C}
   ]]>
  </style>
 </defs>
 <g id="Layer_x0020_1">
  <metadata id="CorelCorpID_0Corel-Layer"/>
  <g id="_1835965381888">
   <path class="fil0" d="M14.58 6.99c0.48,-0.33 0.95,0.1 0.64,0.66 0.05,0.09 0.14,0.19 0.21,0.28 0.07,0.1 0.14,0.21 0.2,0.31 0.47,-0.18 0.62,0.15 0.77,0.5 0.14,0.33 0.25,0.64 0.34,1.01 0.36,1.49 0.1,3.09 -0.68,4.36 -1.91,3.11 -6.14,3.83 -9,1.15 -3.24,-3.04 -1.84,-8.81 2.75,-9.83 0.8,-0.18 1.61,-0.19 2.42,-0.03 0.49,0.1 1.9,0.39 1.55,1.04 0.3,0.16 0.54,0.41 0.8,0.54zm-11.59 -1.96c0.04,0.23 0.6,0.71 0.77,0.88 0.4,0.4 0.75,0.61 0.65,0.98 -0.03,0.1 -0.57,0.87 -0.97,2.29 -0.16,0.57 -0.63,0.42 -1.24,0.42 -1.58,0 -1.34,-0.16 -1.34,1.94 -0,0.58 -0.12,1.05 0.52,1.07 0.48,0.01 1.2,-0.05 1.65,0 0.45,0.06 0.46,0.66 0.6,1.06 0.51,1.51 1.14,1.65 0.55,2.23 -1.59,1.58 -1.59,1.18 -0.11,2.66 0.92,0.92 0.83,0.88 1.83,-0.12 0.44,-0.44 0.6,-0.75 0.97,-0.65 0.18,0.05 0.8,0.43 1.09,0.56 1.7,0.73 1.62,0.07 1.62,1.64 0,1.57 -0.17,1.34 1.94,1.34 0.58,0 1.06,0.12 1.07,-0.52 0.01,-0.49 -0.05,-1.2 0,-1.65 0.06,-0.45 0.65,-0.46 1.05,-0.6 1.63,-0.55 1.62,-1.15 2.22,-0.54 1.57,1.62 1.25,1.52 2.67,0.1 0.78,-0.78 0.88,-0.81 0.28,-1.41 -1.46,-1.46 -1.21,-0.9 -0.49,-2.49 0.76,-1.67 0.02,-1.63 1.64,-1.63 1.57,0 1.34,0.17 1.34,-1.93 -0,-0.59 0.13,-1.06 -0.52,-1.08 -0.49,-0.02 -1.2,0.05 -1.65,-0 -0.44,-0.06 -0.46,-0.62 -0.6,-1.05 -0.55,-1.64 -1.15,-1.62 -0.54,-2.22 1.62,-1.57 1.52,-1.26 0.1,-2.67 -0.79,-0.79 -0.81,-0.88 -1.41,-0.28 -1.47,1.47 -0.89,1.21 -2.49,0.49 -1.66,-0.75 -1.62,-0.03 -1.62,-1.64 0,-1.57 0.17,-1.34 -1.94,-1.34 -0.58,0 -1.06,-0.12 -1.07,0.52 -0.01,0.48 0.05,1.21 -0,1.65 -0.06,0.45 -0.65,0.47 -1.05,0.6 -1.55,0.52 -1.64,1.14 -2.23,0.55 -1.58,-1.59 -1.18,-1.59 -2.66,-0.11 -0.18,0.18 -0.72,0.58 -0.65,0.95z"/>
   <path class="fil1" d="M3 5.03c-0.07,-0.37 0.46,-0.77 0.65,-0.95 1.48,-1.48 1.09,-1.48 2.66,0.11 0.59,0.59 0.68,-0.03 2.23,-0.55 0.4,-0.14 0.99,-0.15 1.05,-0.6 0.06,-0.44 -0.01,-1.17 0,-1.65 0.02,-0.64 0.49,-0.52 1.07,-0.52 2.1,0 1.94,-0.23 1.94,1.34 0,1.61 -0.04,0.89 1.62,1.64 1.59,0.71 1.01,0.98 2.49,-0.49 0.6,-0.6 0.62,-0.5 1.41,0.28 1.42,1.42 1.52,1.11 -0.1,2.67 -0.62,0.59 -0.01,0.58 0.54,2.22 0.14,0.42 0.16,0.99 0.6,1.05 0.45,0.06 1.16,-0.01 1.65,0 0.64,0.02 0.52,0.49 0.52,1.08 0,2.1 0.22,1.93 -1.34,1.93 -1.62,0 -0.88,-0.05 -1.64,1.63 -0.72,1.59 -0.97,1.02 0.49,2.49 0.6,0.6 0.5,0.63 -0.28,1.41 -1.42,1.42 -1.1,1.52 -2.67,-0.1 -0.59,-0.61 -0.58,-0.01 -2.22,0.54 -0.4,0.13 -1,0.15 -1.05,0.6 -0.06,0.45 0.01,1.16 -0,1.65 -0.02,0.64 -0.49,0.52 -1.07,0.52 -2.11,-0 -1.94,0.23 -1.94,-1.34 0,-1.57 0.07,-0.91 -1.62,-1.64 -0.29,-0.13 -0.92,-0.51 -1.09,-0.56 -0.37,-0.1 -0.53,0.21 -0.97,0.65 -0.99,0.99 -0.9,1.04 -1.83,0.12 -1.48,-1.48 -1.48,-1.08 0.11,-2.66 0.58,-0.58 -0.04,-0.72 -0.55,-2.23 -0.13,-0.4 -0.15,-1 -0.6,-1.06 -0.45,-0.06 -1.17,0.01 -1.65,-0 -0.64,-0.02 -0.52,-0.49 -0.52,-1.07 0,-2.11 -0.24,-1.94 1.34,-1.94 0.61,0 1.08,0.15 1.24,-0.42 0.4,-1.42 0.94,-2.19 0.97,-2.29 0.1,-0.36 -0.25,-0.58 -0.65,-0.98 -0.16,-0.16 -0.72,-0.65 -0.77,-0.88zm5.72 -2.38c-0.13,0.06 -0.34,0.12 -0.48,0.17 -0.2,0.07 -0.32,0.11 -0.5,0.19 -0.26,0.11 -0.71,0.37 -0.92,0.42 -0.34,-0.23 -0.75,-0.79 -1.1,-1.07 -0.48,-0.39 -1.15,-0.29 -1.59,0.03 -0.29,0.21 -0.8,0.79 -1.09,1.07 -0.66,0.66 -0.9,0.75 -0.9,1.61 0,0.73 0.97,1.24 1.3,1.73 -0.05,0.2 -0.44,0.89 -0.6,1.39 -0.05,0.16 -0.11,0.38 -0.18,0.51 -0.93,0 -1.82,-0.19 -2.37,0.49 -0.1,0.13 -0.27,0.47 -0.27,0.68l0 2.34c0,0.55 0.39,0.99 0.8,1.15 0.47,0.18 1.24,0.1 1.85,0.1l0.36 0.98c0.11,0.29 0.36,0.68 0.42,0.92 -0.23,0.34 -0.79,0.75 -1.07,1.1 -0.39,0.47 -0.29,1.15 0.03,1.59 0.21,0.29 0.79,0.8 1.07,1.09 0.66,0.66 0.75,0.9 1.62,0.9 0.73,0 1.24,-0.97 1.73,-1.3 0.18,0.04 0.92,0.44 1.39,0.6 0.17,0.06 0.37,0.11 0.52,0.18 0,0.61 -0.08,1.38 0.1,1.85 0.16,0.41 0.61,0.8 1.15,0.8l2.25 0c0.55,0 0.99,-0.39 1.15,-0.8 0.18,-0.47 0.1,-1.24 0.1,-1.85l0.98 -0.36c0.29,-0.11 0.68,-0.36 0.92,-0.42 0.57,0.38 0.88,1.21 1.73,1.31 0.85,0.09 1.36,-0.65 1.83,-1.12 0.43,-0.43 1.26,-1.03 1.13,-1.84 -0.08,-0.54 -0.26,-0.65 -0.57,-0.95 -0.2,-0.2 -0.61,-0.57 -0.75,-0.77 0.05,-0.2 0.44,-0.89 0.6,-1.39 0.05,-0.16 0.11,-0.38 0.18,-0.51 0.61,0 1.38,0.08 1.85,-0.1 0.41,-0.16 0.8,-0.61 0.8,-1.15l0 -2.34c0,-0.22 -0.17,-0.55 -0.27,-0.68 -0.13,-0.17 -0.35,-0.32 -0.55,-0.4 -0.4,-0.17 -1.27,-0.09 -1.82,-0.09l-0.36 -0.98c-0.11,-0.26 -0.37,-0.71 -0.42,-0.92 0.54,-0.8 1.3,-0.76 1.3,-2.04 0,-0.58 -0.92,-1.33 -1.42,-1.83 -0.17,-0.17 -0.37,-0.4 -0.55,-0.54 -1.33,-1.01 -2.14,0.64 -2.71,1.02 -0.2,-0.05 -0.89,-0.44 -1.39,-0.6 -0.16,-0.05 -0.38,-0.11 -0.51,-0.18 0,-0.61 0.08,-1.38 -0.1,-1.85 -0.16,-0.41 -0.61,-0.8 -1.15,-0.8l-2.25 0c-0.55,0 -0.99,0.39 -1.15,0.8 -0.18,0.47 -0.1,1.24 -0.1,1.85z"/>
   <path class="fil2" d="M9.59 14.2c-0.19,-0.06 -0.49,-0.21 -0.57,-0.38 -0.52,0.42 -1.03,-0.1 -0.68,-0.59 -0.1,-0.2 -0.32,-0.44 -0.35,-0.66 -0.61,0.15 -0.67,-0.37 -0.75,-0.91 -0.46,-3.05 2.69,-5.43 5.55,-4.08 2.14,1.01 2.93,3.92 1.44,5.83 -0.48,0.62 -1.07,1.16 -2.07,1.44 -0.57,0.16 -2.77,0.4 -2.57,-0.65zm6.05 -5.96c-0.06,-0.1 -0.13,-0.22 -0.2,-0.31 -0.07,-0.09 -0.17,-0.2 -0.21,-0.28 -0.56,0.25 -0.97,-0.15 -0.64,-0.66 -0.25,-0.13 -0.5,-0.38 -0.8,-0.54 -0.46,0.74 -1.22,-0.72 -3.74,-0.18 -0.57,0.12 -1.23,0.4 -1.63,0.67 -0.71,0.48 -0.51,0.41 -0.92,0.77 -0.13,0.12 -0.17,0.2 -0.28,0.33 -1.13,1.41 -1.44,3.51 -0.53,5.29 0.2,0.38 0.42,0.69 0.68,1.02 0.1,0.13 0.2,0.18 0.31,0.3 0.59,0.68 1.92,1.33 3.21,1.38 3.89,0.15 6.22,-3.92 4.7,-6.99 -0.2,-0.41 -0.24,-0.49 0.05,-0.8z"/>
   <path class="fil1" d="M15.64 8.24c-0.29,0.31 -0.25,0.38 -0.05,0.8 1.52,3.08 -0.81,7.15 -4.7,6.99 -1.29,-0.05 -2.62,-0.71 -3.21,-1.38 -0.11,-0.12 -0.2,-0.17 -0.31,-0.3 -0.26,-0.32 -0.48,-0.63 -0.68,-1.02 -0.92,-1.77 -0.6,-3.87 0.53,-5.29 0.1,-0.13 0.14,-0.21 0.28,-0.33 0.41,-0.35 0.22,-0.29 0.92,-0.77 0.4,-0.27 1.06,-0.55 1.63,-0.67 2.52,-0.54 3.28,0.92 3.74,0.18 0.35,-0.65 -1.06,-0.94 -1.55,-1.04 -0.81,-0.16 -1.63,-0.14 -2.42,0.03 -4.59,1.01 -5.99,6.79 -2.75,9.83 2.86,2.68 7.09,1.95 9,-1.15 0.78,-1.28 1.04,-2.87 0.68,-4.36 -0.09,-0.37 -0.2,-0.68 -0.34,-1.01 -0.14,-0.34 -0.3,-0.67 -0.77,-0.5z"/>
   <path class="fil1" d="M7.99 12.57c0.6,-0.38 -0.19,-0.79 0.16,-2.21 0.57,-2.31 3.49,-3.04 5.1,-1.42 1.54,1.55 0.96,4.51 -1.42,5.1 -0.4,0.1 -0.83,0.12 -1.25,0.04 -0.62,-0.11 -0.65,-0.29 -0.99,0.12 -0.2,1.05 2,0.81 2.57,0.65 1,-0.28 1.59,-0.83 2.07,-1.44 1.49,-1.91 0.7,-4.82 -1.44,-5.83 -2.86,-1.35 -6.01,1.03 -5.55,4.08 0.08,0.54 0.14,1.06 0.75,0.91z"/>
   <path class="fil1" d="M14.58 6.99c-0.33,0.51 0.08,0.91 0.64,0.66 0.31,-0.56 -0.16,-0.99 -0.64,-0.66z"/>
   <path class="fil1" d="M8.34 13.23c-0.36,0.5 0.16,1.01 0.68,0.59 0.18,-0.56 -0.21,-0.9 -0.68,-0.59z"/>
  </g>
 </g>
</svg>
