<?xml version="1.0" encoding="UTF-8"?>
<!DOCTYPE svg PUBLIC "-//W3C//DTD SVG 1.1//EN" "http://www.w3.org/Graphics/SVG/1.1/DTD/svg11.dtd">
<!-- Creator: CorelDRAW 2021 (64-Bit) -->
<svg xmlns="http://www.w3.org/2000/svg" xml:space="preserve" width="16.2492mm" height="17.3904mm" version="1.1" style="shape-rendering:geometricPrecision; text-rendering:geometricPrecision; image-rendering:optimizeQuality; fill-rule:evenodd; clip-rule:evenodd"
viewBox="0 0 207.67 222.26"
 xmlns:xlink="http://www.w3.org/1999/xlink"
 xmlns:xodm="http://www.corel.com/coreldraw/odm/2003">
 <defs>
  <style type="text/css">
   <![CDATA[
    .fil0 {fill:#0E5706;fill-rule:nonzero}
   ]]>
  </style>
 </defs>
 <g id="Layer_x0020_1">
  <metadata id="CorelCorpID_0Corel-Layer"/>
  <g id="_1835910822672">
   <path class="fil0" d="M11.89 23.74l-11.89 23.79 0.17 11.29 0.13 11.33 1.43 2.91c0.96,1.91 2.17,3.52 3.6,4.73l2.13 1.87 0 34.16 0 34.21 -3.69 0 -3.69 0 0 37.11 0 37.12 103.75 0 103.75 0 0 -37.12 0 -37.11 -3.69 0 -3.69 0 0 -34.21 0 -34.16 2.13 -1.87c1.43,-1.22 2.65,-2.82 3.6,-4.73l1.43 -2.91 0.13 -11.33 0.17 -11.29 -11.89 -23.79 -11.85 -23.74 -80.09 0 -80.09 0 -11.85 23.74 -0 0zm23.79 -15.84c0,0.3 -2.78,10.29 -6.17,22.14l-6.16 21.62 -7.94 0 -7.94 0 0 -1.3c0,-0.82 3.73,-8.81 10.42,-22.14l10.42 -20.84 3.69 0c2.65,0 3.69,0.17 3.69,0.52l0 0zm15.54 0.87c-0.13,0.78 -1.56,10.77 -3.21,22.14l-2.91 20.75 -7.03 0 -7.03 0 6.34 -22.14 6.29 -22.14 3.86 0 3.91 0 -0.22 1.39zm15.71 20.75l0 22.14 -7.21 0 -7.21 0 0.22 -1.22c0.13,-0.65 1.56,-10.59 3.17,-22.14l2.99 -20.92 3.99 0 4.04 0 0 22.14 0 0zm22.14 0l0 22.14 -7.38 0 -7.38 0 0 -22.14 0 -22.14 7.38 0 7.38 0 0 22.14zm22.14 0l0 22.14 -7.38 0 -7.38 0 0 -22.14 0 -22.14 7.38 0 7.38 0 0 22.14zm22.14 0l0 22.14 -7.38 0 -7.38 0 0 -22.14 0 -22.14 7.38 0 7.38 0 0 22.14zm18.41 -1.22c1.61,11.55 3.04,21.49 3.17,22.14l0.26 1.22 -7.25 0 -7.21 0 0 -22.14 0 -22.14 4.04 0 3.99 0 3 20.92 0 0zm18.54 1.22l6.34 22.14 -7.03 0 -7.03 0 -2.91 -20.75c-1.65,-11.37 -3.08,-21.36 -3.21,-22.14l-0.22 -1.39 3.91 0 3.86 0 6.29 22.14zm19.49 -1.3c6.69,13.33 10.42,21.32 10.42,22.14l0 1.3 -7.94 0 -7.94 0 -6.16 -21.62c-3.39,-11.85 -6.16,-21.84 -6.16,-22.14 0,-0.35 1.04,-0.52 3.69,-0.52l3.69 0 10.42 20.84 0 0zm-167.56 35.6c0,4.95 -0.52,6.64 -2.56,8.38 -2.6,2.17 -6.42,2.39 -9.12,0.43 -2.17,-1.61 -3.08,-4.17 -3.08,-8.9l0 -4.25 7.38 0 7.38 0 0 4.34 0 0zm22.14 0.3c0,4.99 -0.52,6.6 -2.74,8.42 -2.21,1.78 -6.12,1.87 -8.68,0.17 -2.34,-1.52 -3.04,-3.39 -3.26,-8.55l-0.22 -4.69 7.47 0 7.42 0 0 4.64zm22.49 0.04c-0.22,5.17 -0.91,7.03 -3.26,8.55 -2.56,1.69 -6.47,1.61 -8.68,-0.17 -2.21,-1.82 -2.74,-3.43 -2.74,-8.42l0 -4.64 7.42 0 7.47 0 -0.22 4.69zm22.23 -0.43c0,4.73 -0.91,7.29 -3.08,8.9 -2.69,1.95 -6.51,1.74 -9.12,-0.43 -2.04,-1.74 -2.56,-3.43 -2.56,-8.38l0 -4.34 7.38 0 7.38 0 0 4.25 0 0zm22.14 0.09c0,4.95 -0.52,6.64 -2.56,8.38 -2.91,2.43 -6.73,2.43 -9.64,0 -2.04,-1.74 -2.56,-3.43 -2.56,-8.38l0 -4.34 7.38 0 7.38 0 0 4.34 0 0zm22.14 0c0,4.95 -0.52,6.64 -2.56,8.38 -2.6,2.17 -6.42,2.39 -9.12,0.43 -2.17,-1.61 -3.08,-4.17 -3.08,-8.9l0 -4.25 7.38 0 7.38 0 0 4.34 0 0zm22.14 0.3c0,4.99 -0.52,6.6 -2.74,8.42 -2.21,1.78 -6.12,1.87 -8.68,0.17 -2.34,-1.52 -3.04,-3.39 -3.26,-8.55l-0.22 -4.69 7.47 0 7.42 0 0 4.64zm22.49 0.04c-0.22,5.17 -0.91,7.03 -3.26,8.55 -2.56,1.69 -6.47,1.61 -8.68,-0.17 -2.21,-1.82 -2.73,-3.43 -2.73,-8.42l0 -4.64 7.42 0 7.47 0 -0.22 4.69zm22.23 -0.43c0,4.73 -0.91,7.29 -3.08,8.9 -2.69,1.95 -6.51,1.74 -9.12,-0.43 -2.04,-1.74 -2.56,-3.43 -2.56,-8.38l0 -4.34 7.38 0 7.38 0 0 4.25 0 0zm-168 16.84c4.39,1.74 10.51,0.65 14.15,-2.56l1.91 -1.69 2 1.78c4.95,4.34 12.59,4.39 18.28,0.09l2.21 -1.69 1.04 1.09c1.35,1.52 5.6,3.47 8.21,3.82 3.65,0.52 7.68,-0.78 11.07,-3.52l1.78 -1.43 1.04 1.09c0.56,0.61 2.26,1.69 3.78,2.43 5.17,2.56 11.37,1.69 15.76,-2.17l1.56 -1.35 1.04 1.09c0.56,0.61 2.3,1.69 3.82,2.43 5.12,2.43 10.9,1.74 15.24,-1.82l1.95 -1.61 1.95 1.52c3.04,2.3 5.43,3.21 8.9,3.3 3.78,0.04 6.99,-1.04 9.59,-3.34l1.91 -1.69 2 1.78c4.95,4.34 12.59,4.38 18.28,0.09l2.21 -1.69 1.04 1.09c1.26,1.39 5.82,3.6 7.38,3.6 2.74,0 2.52,-2.74 2.52,33.69l0 33.17 -3.69 0 -3.69 0 0 -14.76 0 -14.76 -5.64 0 -5.64 0 0 -6.64c0,-6.03 -0.09,-6.77 -1.04,-8.77 -0.95,-2.04 -2.47,-3.82 -4.34,-5.12 -0.78,-0.56 -0.78,-0.69 0.3,-4.21 0.61,-2.04 1.09,-3.69 1.04,-3.73 -0.61,-0.39 -6.86,-2.21 -6.99,-2 -0.09,0.17 -0.74,2.17 -1.52,4.43l-1.35 4.12 -2.34 1.22c-2.26,1.22 -2.39,1.22 -3.47,0.52 -1.39,-0.91 -1.39,-1.04 -0.04,-4.99 0.61,-1.74 1.04,-3.21 0.95,-3.26 -0.52,-0.43 -6.86,-2.26 -6.99,-2.04 -0.09,0.17 -0.74,2.17 -1.52,4.43l-1.35 4.12 -2.34 1.22c-2.26,1.22 -2.39,1.22 -3.47,0.52 -1.39,-0.91 -1.39,-1.04 -0.04,-4.99 0.61,-1.74 1.04,-3.21 0.95,-3.26 -0.52,-0.43 -6.86,-2.26 -6.99,-2.04 -0.09,0.17 -0.78,2.21 -1.52,4.52 -1.3,3.86 -1.52,4.25 -2.78,4.64 -2.17,0.74 -4.47,2.87 -5.69,5.34 -1.09,2.13 -1.13,2.6 -1.13,9.12l0 6.86 -5.64 0 -5.64 0 0 14.76 0 14.76 -7.38 0 -7.38 0 0 -2.35c0,-8.73 -4.86,-16.02 -12.29,-18.54l-2.26 -0.78 -0.3 -3.82c-0.43,-5.04 -1.26,-7.68 -3.26,-10.55 -3.69,-5.3 -8.42,-7.77 -15.45,-8.16 -5.08,-0.26 -7.51,0.48 -9.25,2.78l-1.13 1.43 -1.35 -1c-3.04,-2.3 -5.73,-3.04 -11.46,-3.04 -5.86,-0.04 -6.69,0.26 -8.68,3.17 -2.43,3.56 -1.52,12.68 1.74,17.49l0.78 1.22 -2.52 0c-4.73,0 -7.99,2.6 -8.64,6.86 -0.52,3.34 0.43,9.29 1.95,12.33 0.74,1.48 1.35,2.74 1.35,2.82 0,0.04 -2.43,0.13 -5.43,0.13l-5.43 0 0 -33.17c0,-36.42 -0.22,-33.69 2.52,-33.69 1.56,0 6.12,-2.21 7.42,-3.6l1 -1.13 2.26 1.69c1.22,0.91 3.08,2 4.17,2.43l-0 0zm103.62 24.22c1.22,1.04 1.22,1.04 1.35,7.38l0.13 6.34 -3.69 0 -3.73 0 0 -6.25c0,-6.12 0,-6.25 1.13,-7.38 1.48,-1.43 3.21,-1.48 4.82,-0.09l0 0zm14.93 0.22l1.26 1.26 0 6.12 0 6.12 -3.69 0 -3.69 0 0 -6.21c0.04,-6.38 0.17,-7.03 1.95,-8.03 1.43,-0.82 2.82,-0.56 4.17,0.74l0 0zm13.98 -0.78c1.69,0.78 2.04,2.17 2.04,8.42l0 5.86 -3.69 0 -3.69 0 0 -6.12 0 -6.12 1.26 -1.26c1.35,-1.35 2.39,-1.56 4.08,-0.78l0 0zm-120.29 7.6c4.47,1.48 7.03,5.25 7.55,10.98l0.3 3.08 -3.21 0c-3.91,0 -6.86,-1.22 -9.03,-3.69 -1.95,-2.26 -2.56,-3.82 -2.91,-7.73l-0.3 -3.34 2.82 0c1.52,0 3.69,0.3 4.78,0.69zm22.66 0.17c2.6,1 5.12,3.43 6.21,5.99 0.35,0.87 0.74,3 0.87,4.73l0.26 3.17 -2.78 0c-1.52,0 -3.52,-0.22 -4.38,-0.43 -2.47,-0.7 -5.17,-3 -6.51,-5.6 -1,-1.91 -1.22,-2.87 -1.22,-5.51l0 -3.21 2.6 0c1.52,0 3.52,0.35 4.95,0.87zm110.96 24.96l0 11.07 -29.74 0 -29.74 0 0 -11.07 0 -11.07 29.74 0 29.74 0 0 11.07zm-139.39 -2.13c3.86,2.08 5.69,5.34 5.69,10.16l0 3.04 -2.65 0c-3.73,0 -5.77,-0.74 -8.21,-2.91 -2.52,-2.26 -3.39,-4.3 -3.78,-8.68l-0.26 -3.3 3.52 0.22c2.69,0.22 3.99,0.52 5.69,1.48l0 0zm22.01 -0.17c3.65,1.82 5.69,5.25 6.12,10.33l0.26 3.04 -3.21 0c-4.86,-0.04 -7.81,-1.61 -10.29,-5.43 -0.91,-1.43 -1.17,-2.39 -1.3,-5.6l-0.22 -3.86 3.34 0.26c2.17,0.13 3.99,0.56 5.3,1.26l0 0zm22.1 -0.09c3.91,1.87 6.29,6.12 6.29,11.16l0 2.3 -3.12 0c-7.25,-0.04 -11.63,-4.43 -11.63,-11.68l0 -3.21 3.26 0.26c2.04,0.13 4.04,0.61 5.21,1.17zm117.43 50.57l0 29.74 -96.37 0 -96.37 0 0 -29.74 0 -29.74 96.37 0 96.37 0 0 29.74z"/>
   <polygon class="fil0" points="125.98,136.96 125.98,140.65 148.33,140.65 170.73,140.65 170.6,137.04 170.47,133.49 148.25,133.35 125.98,133.27 125.98,136.96 "/>
   <path class="fil0" d="M137.7 164.74l-4.17 4.17 -2.13 -1c-1.78,-0.82 -2.91,-1 -6.29,-1 -6.82,0 -9.85,1.87 -15.24,9.46 -1.74,2.43 -3.17,4.47 -3.26,4.56 -0.04,0.09 -1.43,-1.17 -3.04,-2.82 -5.38,-5.34 -10.98,-7.51 -19.54,-7.51 -4.3,0 -4.99,0.09 -6.25,0.95 -2.82,1.91 -3.26,2.95 -3.39,8.07 -0.3,9.55 2.82,16.58 9.81,22.18 5.17,4.17 11.07,5.86 19.4,5.6l5.21 -0.17 12.72 -6.38c8.77,-4.43 13.33,-6.95 14.63,-8.16 2.39,-2.21 4.08,-5.6 4.43,-8.81l0.26 -2.43 3.6 0 3.65 0 0 -3.69 0 -3.69 -4.65 0 -4.69 0 4.25 -4.25 4.21 -4.21 -2.52 -2.52c-1.39,-1.35 -2.6,-2.47 -2.69,-2.47 -0.13,0 -2.08,1.87 -4.34,4.12l0 -0zm-8.9 10.16c2,0.91 3.43,2.34 4.08,4.08 1.17,3.04 0,7.16 -2.43,8.9 -1.17,0.82 -18.54,9.64 -19.01,9.64 -0.13,0 -0.22,-0.69 -0.22,-1.56 0,-0.83 -0.22,-2.87 -0.48,-4.47l-0.48 -2.95 4.47 -6.25c3.69,-5.12 4.86,-6.42 6.47,-7.25 2.34,-1.17 5.21,-1.22 7.6,-0.13l0 0zm-35.68 4.69c6.73,3.17 10.72,9.85 10.72,17.93l0 2.6 -2.04 0c-5.82,0 -10.55,-1.74 -14.15,-5.17 -3.95,-3.73 -5.95,-8.42 -5.95,-14.11l0 -2.95 4.25 0.17c3.6,0.13 4.64,0.35 7.16,1.52l0 0z"/>
  </g>
 </g>
</svg>
