<?xml version="1.0" encoding="UTF-8"?>
<!DOCTYPE svg PUBLIC "-//W3C//DTD SVG 1.1//EN" "http://www.w3.org/Graphics/SVG/1.1/DTD/svg11.dtd">
<!-- Creator: CorelDRAW 2021 (64-Bit) -->
<svg xmlns="http://www.w3.org/2000/svg" xml:space="preserve" width="5.7295mm" height="5.7295mm" version="1.1" style="shape-rendering:geometricPrecision; text-rendering:geometricPrecision; image-rendering:optimizeQuality; fill-rule:evenodd; clip-rule:evenodd"
viewBox="0 0 148.07 148.07"
 xmlns:xlink="http://www.w3.org/1999/xlink"
 xmlns:xodm="http://www.corel.com/coreldraw/odm/2003">
 <defs>
  <style type="text/css">
   <![CDATA[
    .fil0 {fill:#0E5706}
   ]]>
  </style>
 </defs>
 <g id="Layer_x0020_1">
  <metadata id="CorelCorpID_0Corel-Layer"/>
  <path class="fil0" d="M55.86 0l3.81 0c8.01,0.25 15.95,2.09 22.75,5.49l12.73 8.1c2.55,1.86 6.57,6.39 8.6,9.05 3.27,4.29 4.13,6 6.54,10.81 6.47,12.91 7.04,29.45 2.33,43.3l-2.17 5.34c-0.21,0.54 -0.4,0.98 -0.73,1.58 -0.41,0.73 -0.61,0.9 -0.97,1.63l-2.6 4.63c1.32,0.88 20.22,20.08 21.91,21.76 2.62,2.62 17.37,16.65 18.88,19.59 1.07,2.08 1.15,3.53 1.15,5.58l0 0.67 0 0.12c0,4.69 -4.61,9.67 -10.27,10.41l-2.86 0c-1.27,-0.17 -2.56,-0.57 -3.84,-1.25 -1.45,-0.77 -1.97,-1.35 -3.05,-2.44l-16.34 -16.34c-1.62,-1.62 -20.9,-20.62 -21.76,-21.91 -3.72,1.97 -5.74,3.55 -9.87,5.17 -9.13,3.59 -13.88,4.38 -24.25,4.38 -10.26,0 -23.47,-4.7 -31.35,-10.58 -8.09,-6.04 -11.43,-9.87 -16.71,-18.28 -0.87,-1.38 -1.58,-3.05 -2.35,-4.59 -4.15,-8.29 -5.4,-16.19 -5.4,-26.41 0,-8.11 2.78,-17.12 5.49,-22.56 1.43,-2.87 1.94,-4.01 3.71,-6.71l1.38 -2.09c2.4,-3.21 3.33,-4.52 6.35,-7.53 1.29,-1.29 2.31,-2.36 3.78,-3.45 6,-4.48 5.12,-4.27 12.74,-8.08 6.72,-3.36 14.52,-5.15 22.41,-5.4zm-38.51 58.71l0.28 -4.64c0.09,-2.54 0.6,-4.14 1.17,-6.35 0.18,-0.7 0.34,-1.46 0.53,-2.07 0.24,-0.76 0.41,-1.17 0.71,-1.89 1.75,-4.3 1.51,-4.03 4.25,-8.47 2.23,-3.61 6.56,-7.68 10,-10.24 2.04,-1.53 4.02,-2.55 6.38,-3.74 3.35,-1.69 7.86,-2.9 11.64,-3.4 1.3,-0.17 3.48,-0.29 4.72,-0.49 1.11,-0.18 7.84,0.62 9.13,0.87 0.52,0.1 1.14,0.35 1.79,0.52l3.96 1.24c4.14,1.69 5.97,2.39 9.8,5.23l6.56 6.17c5.09,6.03 6.54,9.2 8.72,16.73 0.46,1.58 0.54,2.36 0.78,4.13 0.8,6.01 0.43,4.46 0.27,9.3 -0.09,2.54 -0.6,4.14 -1.17,6.35 -1.32,5.12 -3.29,9.47 -6.48,13.77 -1.87,2.52 -5.05,5.97 -7.52,7.81 -0.62,0.46 -0.88,0.64 -1.5,1.1 -4.62,3.45 -8.62,4.84 -13.89,6.36 -2.25,0.65 -8.66,1.58 -10.93,1.16 -2.22,-0.42 -2.49,0.36 -8.85,-1.27 -5.12,-1.32 -9.47,-3.29 -13.77,-6.48 -0.52,-0.39 -1.04,-0.73 -1.49,-1.11l-2.75 -2.46c-4.8,-4.85 -7.14,-8.7 -9.85,-15.31 -2.13,-5.2 -1.72,-8.74 -2.51,-12.81zm37.6 -33.26c0,4.68 3.84,3.21 7.83,4.02 2.09,0.43 3.11,0.72 5.01,1.36 2.8,0.94 5.89,2.87 8.16,4.56 6.12,4.57 8.79,12.36 9.3,12.97 1.74,2.11 5.27,0.76 5.27,-1.8 0,-1.16 -1.34,-3.82 -1.83,-4.82 -0.79,-1.6 -1.69,-2.81 -2.67,-4.27 -9.05,-13.33 -31.06,-17.69 -31.06,-12.02zm31.81 31.81c0,5.33 5.79,3.59 5.79,1.16 0,-5.33 -5.79,-3.59 -5.79,-1.16zm-75.19 -1.73c0,8.09 0.73,14.78 4.44,22.17 1.86,3.71 2.8,5.27 5.19,8.4l2.47 3.03c0.41,0.52 0.93,0.96 1.43,1.46 7.62,7.62 19.87,13.52 30.44,13.52 8.09,0 14.78,-0.73 22.17,-4.44 2.58,-1.29 4.68,-2.43 6.92,-4.07l9.74 -9.35c3.85,-5.06 6.68,-10.29 8.25,-16.62 2.09,-8.4 2.09,-15.2 0,-23.6 -1.29,-5.19 -3.93,-10.76 -7,-14.98l-2.41 -3.08c-0.68,-0.69 -0.63,-0.72 -1.18,-1.43 -3.02,-3.87 -10.28,-8.52 -14.32,-10.55 -9.77,-4.9 -21.06,-5.56 -31.66,-2.93 -2.75,0.68 -5.61,1.71 -8.06,2.93 -3.71,1.86 -5.27,2.8 -8.4,5.19 -0.62,0.48 -1.05,0.74 -1.6,1.29 -0.93,0.93 -2.81,2.26 -4.19,3.91 -5.05,6.01 -8.73,11.66 -10.72,19.65 -0.68,2.74 -1.5,6.22 -1.5,9.49zm82.93 46.92c2.32,-1.58 1.68,-1.41 3.18,-2.75 0.6,-0.54 0.68,-0.39 1.16,-0.87 0.51,-0.51 0.23,-0.41 0.73,-1.01 1.09,-1.3 1.22,-0.87 2.82,-3.25l8.17 8.03c-1.56,2.29 -5.66,6.39 -7.88,7.88l-8.17 -8.02zm-88.71 -43.74c-0.33,-1.71 0.75,-9.36 1.27,-11.74 1.18,-5.37 4.34,-13.72 7.77,-18.26l4.19 -5.35c3.13,-3.09 6.46,-6.72 10.58,-9.09 6.96,-4.01 12.94,-6.93 21.32,-7.89 1.81,-0.21 4.48,-0.26 6.13,-0.53 2.11,-0.34 9.1,0.65 11.68,1.21 9.21,2.02 14.84,5.15 21.88,10.51 1.97,1.5 3.41,3.12 5.05,4.78 0.58,0.59 1.05,0.98 1.6,1.58l6.53 9.66c2.47,5.41 3.04,6.2 4.49,11.99 0.44,1.73 0.83,3.54 1.03,5.33 1.02,8.9 0.3,19.51 -3.85,27.66 -0.46,0.9 -0.56,1.26 -0.96,2.21 -0.41,0.96 -0.7,1.14 -1.16,2.02 -0.47,0.9 -0.57,1.21 -1.13,2.05 -0.55,0.82 -0.85,1.26 -1.39,2.08 -2.81,4.22 -3.99,5.27 -7.48,8.72 -2.71,2.68 -5.87,5.1 -9.18,7.01 -5.34,3.09 -13.28,6.19 -19.37,6.65 -1.77,0.13 -4.39,0.35 -6.09,0.56l-6.03 -0.29c-1.68,-0.19 -3.93,-0.58 -5.69,-0.96 -3.35,-0.74 -7.09,-1.84 -9.85,-3.16 -4.41,-2.1 -10.36,-5.36 -13.76,-8.8l-6.29 -6.72c-4.95,-6.74 -7.54,-11.42 -9.66,-19.84 -0.44,-1.73 -0.83,-3.54 -1.03,-5.33 -0.34,-2.95 -0.13,-3.71 -0.59,-6.07z"/>
 </g>
</svg>
