<?xml version="1.0" encoding="UTF-8"?>
<!DOCTYPE svg PUBLIC "-//W3C//DTD SVG 1.1//EN" "http://www.w3.org/Graphics/SVG/1.1/DTD/svg11.dtd">
<!-- Creator: CorelDRAW 2021 (64-Bit) -->
<svg xmlns="http://www.w3.org/2000/svg" xml:space="preserve" width="16.2425mm" height="13.888mm" version="1.1" style="shape-rendering:geometricPrecision; text-rendering:geometricPrecision; image-rendering:optimizeQuality; fill-rule:evenodd; clip-rule:evenodd"
viewBox="0 0 484.78 414.51"
 xmlns:xlink="http://www.w3.org/1999/xlink"
 xmlns:xodm="http://www.corel.com/coreldraw/odm/2003">
 <defs>
  <style type="text/css">
   <![CDATA[
    .fil0 {fill:#0E5706;fill-rule:nonzero}
   ]]>
  </style>
 </defs>
 <g id="Layer_x0020_1">
  <metadata id="CorelCorpID_0Corel-Layer"/>
  <g id="_1836381746480">
   <path class="fil0" d="M295.98 0.42c-8.72,1.33 -19.13,4.74 -27.47,8.81 -38.93,18.94 -58.91,61.75 -48.78,104.18 2.46,10.32 10.7,26.99 17.62,35.33 2.84,3.6 5.02,7.01 4.83,7.67 -0.29,0.57 -30.97,13.17 -68.38,27.85l-67.91 26.71 -36.27 0c-33.72,0 -36.75,0.1 -42.43,1.9 -10.7,3.32 -20.36,12.22 -24.53,22.73 -2.84,7.2 -3.6,31.63 -1.33,40.82 3.03,11.55 10.13,20.27 21.21,25.66 6.15,3.03 6.72,3.12 20.27,3.41l14.02 0.38 0 47.45c0,53.51 -0.1,52.57 7.2,58.06 3.41,2.65 3.98,2.75 15.44,3.03 10.89,0.28 12.31,0.1 16.1,-1.9 2.37,-1.23 5.02,-3.22 5.97,-4.55 2.18,-2.94 13.07,-37.22 13.35,-41.58 0.19,-5.31 -5.68,-8.43 -10.7,-5.78 -1.33,0.66 -3.6,6.53 -8.05,20.46l-6.25 19.42 -9.19 -0.28 -9.19 -0.28 -0.29 -47.17 -0.19 -47.07 17.24 0c16.39,0 17.62,0.1 23.58,2.46 3.5,1.42 6.25,3.03 6.06,3.6 -5.21,16.19 -7.1,22.54 -7.1,23.58 0,2.84 3.88,6.35 7.01,6.35 4.55,0 6.63,-2.93 10.04,-14.2 1.7,-5.49 3.31,-10.23 3.69,-10.61 0.38,-0.38 25.38,9 55.5,20.84l54.93 21.59 0.57 5.59c0.57,4.83 1.14,6.06 4.07,8.71l3.41 3.12 12.31 0 12.31 0 3.6 -3.22 3.5 -3.22 0.28 -32.2 0.28 -32.11 5.4 -1.23c16.57,-3.6 30.31,-16.19 35.23,-32.11 2.46,-7.77 2.65,-20.08 0.38,-27.56 -4.74,-16.29 -19.32,-29.74 -35.9,-33.15l-5.21 -1.04 0 -16.01 0 -15.91 2.18 0.47c3.32,0.85 4.17,1.9 9.94,12.03 6.72,12.03 8.62,13.83 14.11,13.83 5.49,0 7.67,-2.18 14.77,-14.87l5.49 -9.66 6.35 -1.99c3.5,-1.14 6.82,-2.18 7.39,-2.46 0.67,-0.28 1.52,1.42 2.18,4.07 0.66,2.46 2.46,7.39 4.07,10.89 1.61,3.51 2.65,7.1 2.37,8.05 -0.28,0.95 -2.94,7.58 -5.87,14.77 -4.83,11.74 -5.21,13.45 -4.26,15.82 0.57,1.52 2.37,3.22 3.88,3.79 2.56,1.13 4.07,0.66 17.14,-4.64l14.3 -5.97 7.2 3.41c17.24,8.05 36.08,9 54.08,2.56 10.7,-3.79 17.43,-8.05 26.04,-16.67 15.16,-15.25 22.26,-33.53 21.03,-54.46 -1.14,-18.09 -7.86,-32.77 -21.03,-45.94 -7.1,-7.2 -10.04,-9.37 -17.52,-13.07 -12.88,-6.44 -18.85,-7.77 -33.72,-7.67l-12.41 0 -0.57 -8.15c-0.66,-9.85 -3.51,-20.84 -7.77,-29.93 -4.17,-9.09 -7.96,-11.08 -13.17,-6.92 -3.12,2.46 -3.22,6.06 -0.19,12.03 4.17,8.15 6.44,17.24 6.92,27.75l0.57 10.04 -5.59 3.12c-13.26,7.39 -23.58,18.19 -30.4,31.63 -3.69,7.39 -6.92,18.85 -6.92,24.81 0,5.02 -1.42,6.16 -11.84,9.38 -4.17,1.33 -8.52,2.93 -9.76,3.5 -1.23,0.66 -4.64,5.11 -7.48,10.04l-5.3 8.81 -4.45 -7.67c-6.16,-10.42 -6.92,-11.17 -14.77,-13.45l-6.82 -1.99 -0.38 -9 -0.28 -8.9 -3.6 -3.22 -3.6 -3.31 -12.88 0.19 -12.97 0.1 -2.27 -2.65c-1.13,-1.52 -3.6,-5.3 -5.3,-8.43 -29.83,-53.13 11.46,-118.67 72.17,-114.79 15.15,1.04 27.37,5.3 40.44,14.3 7.2,4.92 8.62,5.21 12.22,2.37 3.12,-2.46 3.41,-7.48 0.47,-10.42 -6.25,-6.25 -22.82,-14.59 -35.8,-17.99 -7.1,-1.9 -28.13,-3.22 -34.67,-2.08l0 -0zm134.96 107.31c19.32,6.44 34.28,22.82 38.36,42.24 2.84,13.35 1.42,24.15 -4.83,37.03 -9.37,19.51 -28.22,31.63 -49.63,31.92 -10.7,0.1 -18.47,-1.7 -28.22,-6.72 -4.36,-2.18 -8.72,-4.07 -9.66,-4.07 -0.85,0 -4.74,1.33 -8.52,2.84 -3.79,1.61 -7.1,2.75 -7.29,2.56 -0.19,-0.19 0.95,-3.41 2.56,-7.1 3.5,-8.33 3.5,-10.51 0.09,-16.67 -6.35,-11.17 -8.81,-27.94 -5.87,-40.35 5.02,-21.12 22.44,-38.26 43.95,-43.19 7.95,-1.8 21.12,-1.13 29.08,1.52zm-162.9 150.59l0 104.18 -5.68 0 -5.68 0 0 -63.83c0,-63.08 0,-63.84 -1.99,-66.3 -2.46,-3.12 -7.48,-3.41 -10.32,-0.57 -1.9,1.89 -1.9,3.12 -1.9,56.92 0,52 -0.1,55.02 -1.61,54.65 -0.95,-0.28 -29.74,-11.46 -63.93,-24.91l-62.32 -24.53 0 -35.61 0 -35.52 15.44 -6.06c8.43,-3.31 36.84,-14.49 63.17,-24.81 26.24,-10.42 48.11,-18.85 48.49,-18.85 0.38,0 0.76,7.48 0.76,16.58 0,15.34 0.19,16.76 1.9,18.47 2.84,2.84 7.86,2.56 10.32,-0.57 1.9,-2.46 1.99,-3.69 1.99,-27.94l0 -25.48 5.68 0 5.68 0 0 104.18 0 0zm-167.64 0l0 33.15 -32.77 0c-22.45,0 -34,-0.38 -36.56,-1.14 -4.74,-1.42 -11.56,-7.39 -14.3,-12.5 -1.89,-3.6 -2.08,-5.21 -2.08,-19.51 0,-14.21 0.19,-16.01 2.08,-19.42 2.65,-5.02 7.39,-9.38 12.6,-11.74 3.98,-1.8 6.15,-1.99 37.69,-1.99l33.34 0 0 33.15 0 0zm191.03 -30.31c5.4,2.37 13.26,9.85 16,15.44 4.55,8.81 4.45,21.12 -0.19,30.12 -4.17,8.33 -13.07,15.25 -22.35,17.33l-2.65 0.57 0 -33.15 0 -33.15 2.65 0.57c1.42,0.38 4.36,1.42 6.54,2.27l0 0z"/>
   <path class="fil0" d="M385.01 134.72c-1.33,1.23 -2.37,3.41 -2.37,4.73 0,1.33 1.04,3.51 2.37,4.74l2.27 2.37 25.95 0c24.81,0 26.04,-0.09 28.51,-1.99 3.12,-2.46 3.41,-7.48 0.57,-10.32 -1.8,-1.8 -3.13,-1.9 -28.41,-1.9l-26.61 0 -2.27 2.37 0 0z"/>
   <path class="fil0" d="M385.01 157.45c-1.33,1.23 -2.37,3.41 -2.37,4.73 0,1.33 1.04,3.5 2.37,4.74l2.27 2.37 25.95 0c24.81,0 26.04,-0.1 28.51,-1.99 3.22,-2.56 3.41,-7.29 0.28,-10.14 -2.18,-2.08 -2.84,-2.08 -28.51,-2.08l-26.24 0 -2.27 2.37z"/>
   <path class="fil0" d="M385.01 180.18c-1.33,1.23 -2.37,3.41 -2.37,4.74 0,1.33 1.04,3.5 2.37,4.74l2.27 2.37 25.95 0c24.81,0 26.04,-0.1 28.51,-1.99 3.22,-2.55 3.41,-7.29 0.28,-10.13 -2.18,-2.08 -2.84,-2.08 -28.51,-2.08l-26.24 0 -2.27 2.37z"/>
   <path class="fil0" d="M45.85 239.37c-2.46,0.95 -5.11,4.55 -5.11,6.72 0,0.85 0.85,2.65 1.99,4.07l1.9 2.46 15.15 0c13.83,0 15.25,-0.19 16.95,-1.9 2.56,-2.56 2.46,-7.67 -0.1,-10.04 -1.7,-1.61 -3.69,-1.8 -15.44,-1.99 -7.29,-0.1 -14.3,0.19 -15.34,0.66l0 0z"/>
   <path class="fil0" d="M42.73 266.46c-2.75,3.41 -2.46,5.68 0.85,9l2.84 2.84 14.11 -0.28c12.31,-0.28 14.39,-0.47 16.1,-2.08 2.56,-2.37 2.65,-7.48 0.1,-10.04 -1.7,-1.7 -3.12,-1.89 -16.95,-1.89l-15.15 0 -1.9 2.46z"/>
   <path class="fil0" d="M305.36 41.53c-2.65,1.33 -4.17,4.74 -4.17,9.47 0,7.2 7.58,11.08 12.12,6.25 2.65,-2.84 2.94,-10.8 0.47,-13.74 -2.09,-2.46 -5.78,-3.31 -8.43,-1.99l0 0z"/>
   <path class="fil0" d="M296.45 72.69c-3.31,3.32 -1.99,9.66 2.46,11.37l2.27 0.95 0 17.81 0 17.81 -2.84 1.04c-4.92,1.89 -4.92,9.85 0,12.31 3.03,1.52 16.86,1.52 19.89,0 5.59,-2.84 5.49,-10.23 0,-12.31l-2.84 -1.04 0 -23.01c0,-27.56 0.28,-26.81 -10.42,-26.81 -5.4,0 -7.01,0.38 -8.52,1.9z"/>
   <path class="fil0" d="M166.61 96.27c-1.23,0.95 -3.69,4.74 -5.49,8.43l-3.22 6.63 -7.58 1.14c-8.33,1.23 -11.17,2.55 -12.79,6.25 -2.37,5.11 -1.51,7.77 5.02,14.49l6.16 6.35 -1.23 7.1c-1.51,8.24 -0.76,12.22 2.75,14.97 3.69,2.84 7.95,2.46 15.72,-1.42l6.82 -3.41 6.35 3.41c7.67,4.17 12.6,4.55 16.29,1.13 3.41,-3.22 3.79,-5.68 2.27,-14.58l-1.33 -7.67 6.06 -5.68c5.68,-5.4 5.97,-5.97 5.97,-10.04 0,-6.72 -3.12,-9.28 -13.07,-10.89l-7.86 -1.23 -3.22 -6.44c-1.8,-3.5 -4.26,-7.29 -5.4,-8.33 -2.75,-2.56 -9.09,-2.65 -12.22,-0.19l0 0zm14.49 27.94c1.99,0.85 4.74,1.52 6.16,1.52l2.56 0 -2.94 3.03c-4.45,4.73 -5.3,7.1 -4.64,12.22 0.38,2.56 0.38,4.64 0.19,4.64 -0.29,0 -2.46,-0.95 -4.83,-2.08 -4.55,-2.27 -5.3,-2.18 -13.83,1.52 -1.23,0.57 -1.42,-0.19 -1.04,-4.93 0.38,-5.4 0.28,-5.78 -3.03,-9.37 -3.88,-4.36 -4.07,-5.02 -1.71,-5.02 5.21,0 8.9,-2.08 11.84,-6.72l2.84 -4.73 2.37 4.26c1.7,3.13 3.32,4.64 6.06,5.68l0 0z"/>
   <path class="fil0" d="M380.94 246.57c-1.14,0.76 -3.69,4.55 -5.49,8.24 -1.89,3.79 -3.5,6.91 -3.6,7.01 -0.1,0.1 -3.13,0.66 -6.72,1.23 -8.81,1.33 -11.65,2.56 -13.26,5.78 -2.84,5.3 -1.9,8.05 4.74,14.97l6.15 6.35 -1.23 7.1c-1.52,8.24 -0.76,12.22 2.75,14.96 3.6,2.84 7.96,2.46 15.53,-1.33l6.63 -3.31 6.63 3.31c7.29,3.69 12.5,4.26 15.72,1.61 3.98,-3.13 4.45,-5.3 3.13,-14.4l-1.23 -8.43 5.87 -5.59c5.59,-5.4 5.87,-5.87 5.87,-10.13 0,-5.97 -3.32,-9.38 -9.94,-10.32 -11.37,-1.61 -10.7,-1.23 -14.21,-8.15 -1.8,-3.5 -4.36,-7.29 -5.78,-8.43 -3.03,-2.37 -8.52,-2.65 -11.55,-0.47zm11.93 27.46c0.85,0.66 3.69,1.52 6.16,1.9l4.55 0.66 -2.75 2.94c-4.36,4.55 -5.21,6.91 -4.55,12.12 0.38,2.65 0.28,4.55 -0.1,4.36 -9,-3.88 -9.57,-3.98 -14.21,-2.08 -2.56,1.04 -4.74,1.9 -5.12,2.08 -0.28,0.1 -0.28,-2.27 -0.09,-5.4 0.38,-5.3 0.28,-5.68 -3.03,-9.28 -1.9,-2.08 -3.41,-4.07 -3.41,-4.26 0,-0.28 1.8,-0.76 4.07,-1.14 5.3,-0.85 7.86,-2.65 10.23,-7.39l1.99 -3.88 2.27 4.07c1.33,2.27 3.03,4.64 3.98,5.3l0 0z"/>
   <path class="fil0" d="M332.35 315.05c-1.7,1.33 -2.18,2.94 -2.56,7.39l-0.38 5.78 -5.78 0.38c-6.35,0.47 -9.19,2.75 -9.19,7.29 0,4.35 3.5,6.72 9.75,6.72l5.4 0 0 5.11c0,6.63 2.75,10.32 7.58,10.32 4.64,0 6.63,-2.94 6.63,-9.85l0 -5.59 5.68 0c6.82,0 9.47,-1.99 9.47,-6.92 0,-4.64 -2.65,-6.63 -9.47,-7.1l-5.68 -0.38 0 -5.49c0,-4.83 -0.28,-5.78 -2.46,-7.48 -3.12,-2.46 -6.16,-2.56 -9,-0.19z"/>
  </g>
 </g>
</svg>
