<?xml version="1.0" encoding="UTF-8"?>
<!DOCTYPE svg PUBLIC "-//W3C//DTD SVG 1.1//EN" "http://www.w3.org/Graphics/SVG/1.1/DTD/svg11.dtd">
<!-- Creator: CorelDRAW 2021 (64-Bit) -->
<svg xmlns="http://www.w3.org/2000/svg" xml:space="preserve" width="5.7129mm" height="5.7126mm" version="1.1" style="shape-rendering:geometricPrecision; text-rendering:geometricPrecision; image-rendering:optimizeQuality; fill-rule:evenodd; clip-rule:evenodd"
viewBox="0 0 25.23 25.23"
 xmlns:xlink="http://www.w3.org/1999/xlink"
 xmlns:xodm="http://www.corel.com/coreldraw/odm/2003">
 <defs>
  <style type="text/css">
   <![CDATA[
    .fil0 {fill:black}
    .fil4 {fill:#646D77}
    .fil6 {fill:#69D5F2}
    .fil3 {fill:#B17946}
    .fil2 {fill:#B3DC7E}
    .fil5 {fill:#F0D0B4}
    .fil7 {fill:#FBD670}
    .fil1 {fill:#FD806D}
    .fil8 {fill:#FFC729}
   ]]>
  </style>
 </defs>
 <g id="Layer_x0020_1">
  <metadata id="CorelCorpID_0Corel-Layer"/>
  <g id="_1834018928464">
   <path class="fil0" d="M14.16 16.79c0.2,-0.48 0.37,-0.77 0.53,-1.32l1.36 0c-0.37,0.46 -1.11,1.14 -1.88,1.32zm-0.33 -1.32c-0.18,0.59 -0.63,1.62 -1.22,1.62 -0.58,0 -1.04,-1.02 -1.21,-1.62l2.43 0.01zm-2.76 1.32c-0.76,-0.18 -1.53,-0.87 -1.88,-1.32l1.36 0c0.15,0.55 0.32,0.84 0.52,1.32zm3.98 -3.76l2.02 0c-0.04,0.41 -0.24,1.47 -0.53,1.63l-1.64 0 0.15 -1.63zm-6.35 1.63c-0.29,-0.16 -0.5,-1.22 -0.53,-1.63l2 0 0.17 1.63 -1.64 0zm5.55 -1.62l-0.21 1.62 -2.88 0 -0.16 -1.63 3.25 0.01zm-3.07 -2.45l2.89 -0 0.17 1.62 -0.19 0.01 -2.85 0 -0.21 -0.01 0.2 -1.62zm-3.02 1.63c0.04,-0.43 0.22,-1.44 0.54,-1.63l1.63 -0 -0.14 1.63 -2.02 0zm8.37 -1.63c0.29,0.16 0.5,1.22 0.53,1.63l-2 -0 -0.18 -1.63 1.65 0zm-5.13 -0.82c0.18,-0.6 0.63,-1.62 1.22,-1.62 0.58,0 1.04,1.02 1.23,1.62l-2.45 -0.01zm-10.55 1.23c0.18,-1.38 1.21,-2.48 2.46,-2.76 0.07,0.09 0.03,0.03 0.08,0.14 0.81,1.48 2.38,1.18 2.95,0.07l0.12 -0.21c0.74,0.14 1.68,0.85 1.87,1.29 -0.26,0.42 -0.59,0.9 -0.73,1.48l-6.75 0zm15.2 -1.22l-1.36 0c-0.15,-0.55 -0.32,-0.85 -0.52,-1.32 0.76,0.18 1.53,0.87 1.88,1.32zm-6.85 0c0.35,-0.45 1.12,-1.15 1.88,-1.32 -0.2,0.48 -0.37,0.77 -0.53,1.32l-1.36 0zm-3.68 -2.54c0.1,0.29 0.26,0.54 0.1,0.87 -0.3,0.59 -1.15,0.59 -1.44,0 -0.16,-0.32 0,-0.58 0.1,-0.87 0.64,0.11 0.61,0.11 1.25,0zm1.82 -1.19l0 1.6 -0.92 -0.26 -0.16 -0.62c0.3,-0.2 0.29,-0.36 0.52,-0.63l0.56 -0.08zm-4.88 0.01l0.56 0.06c0.24,0.28 0.22,0.43 0.55,0.64l-0.2 0.6 -0.91 0.29 -0 -1.59zm4.48 -1.57c0.54,0.09 0.54,0.71 -0,0.81l0 -0.81zm-4.07 0.81c-0.54,-0.09 -0.54,-0.72 0,-0.81l-0 0.81zm1.66 -2.44c0.21,0.92 0.56,1.58 1.6,1.63 0,0.71 0.04,1.32 -0.38,1.71 -0.37,0.34 -1.05,0.42 -1.54,0.11 -0.5,-0.32 -0.52,-0.79 -0.52,-1.56 0,-1.21 -0.03,-1.07 0.58,-1.53l-0.17 -0.33 -0.2 -0.37c-0.47,0.2 -0.84,0.57 -0.97,1.14l-0.45 0.08c0,-0.99 0.13,-1.49 0.62,-2.1 0.88,-1.09 2.83,-1.07 3.68,0.03 0.5,0.65 0.59,1.05 0.59,2.06l-0.41 -0.06 0 -0.41 -0.81 0 -0 0.4c-0.61,-0.07 -0.78,-0.58 -0.81,-1.22l-0.82 0 0.03 0.4zm-2.88 5.29c-0.79,0.53 -1.63,1.75 -1.63,3.05l0 0.61 7.37 0c-0.01,0.23 -0.05,0.2 -0.05,0.46 0,1.05 0.03,1.68 0.51,2.65 0.37,0.76 0.75,1.23 1.36,1.74 0.43,0.36 0.59,0.48 1.13,0.75 2.16,1.06 4.8,0.45 6.32,-1.36 0.11,-0.13 0.17,-0.19 0.28,-0.33 0.18,-0.25 0.34,-0.52 0.47,-0.8 1.24,-2.53 0.24,-5.7 -2.49,-7.07 -1.38,-0.7 -3.19,-0.68 -4.58,-0 -0.99,0.49 -0.96,0.68 -1.47,1.02 -0.07,-0.26 -0.5,-0.57 -0.71,-0.71 0,-0.94 0.07,-4.96 -0.05,-5.54 -0.18,-0.84 -0.51,-1.26 -1.03,-1.77 -1.12,-1.11 -3.23,-1.11 -4.35,0 -1.4,1.39 -1.08,2.43 -1.08,4.51 0,0.93 0,1.86 0,2.8z"/>
   <path class="fil0" d="M22.27 21.76c1.02,0.3 1.94,1.4 2.11,2.65l-2.52 0c0.05,-0.44 0.12,-0.9 0.19,-1.34 0.03,-0.22 0.12,-1.13 0.23,-1.31zm-1.95 1.2l1.47 1.43 -0.23 0.02 -2.44 -0 -0.21 -0 1.42 -1.45zm-1.87 -1.2l0.37 2.65 -2.53 0c0.1,-0.7 0.37,-1.25 0.74,-1.68 0.26,-0.3 0.84,-0.86 1.42,-0.98zm2.49 0.62c0.07,-0.12 0.09,-0.12 0.19,-0.23 0.12,-0.12 0.09,-0.12 0.25,-0.19l-0.15 0.74 -0.3 -0.33zm-1.64 -0.42c0.16,0.08 0.34,0.26 0.44,0.42 -0.08,0.14 -0.18,0.24 -0.34,0.31l-0.1 -0.73zm0.41 -1.31c0.64,0.11 0.61,0.11 1.25,-0 0.14,0.43 0.19,0.35 -0.09,0.63 -0.18,0.18 -0.32,0.37 -0.53,0.49 -0.21,-0.13 -0.35,-0.32 -0.53,-0.5 -0.28,-0.27 -0.23,-0.21 -0.09,-0.63zm2.66 -2.75c0.54,0.09 0.54,0.71 -0,0.81l0 -0.81zm-4.07 0.81c-0.54,-0.09 -0.54,-0.72 0,-0.81l-0 0.81zm1.66 -2.39c0.27,0.89 0.55,1.52 1.59,1.58 0,0.71 0.04,1.32 -0.38,1.71 -0.37,0.34 -1.05,0.42 -1.54,0.11 -0.5,-0.32 -0.52,-0.79 -0.52,-1.56 0,-1.2 -0.03,-1.07 0.57,-1.53l-0.13 -0.27c-0.07,-0.13 -0.11,-0.3 -0.24,-0.42 -0.47,0.2 -0.84,0.57 -0.97,1.15 -0.34,0.02 -0.37,0.13 -0.43,-0.22 -0.03,-0.22 -0.04,-0.45 -0.01,-0.67 0.06,-0.43 0.22,-0.75 0.43,-1.04 1.07,-1.51 4.11,-1.17 4.41,1.05 0.15,1.16 -0.25,0.9 -0.39,0.89l0 -0.41 -0.81 0 -0 0.4c-0.61,-0.07 -0.77,-0.58 -0.81,-1.22l-0.82 0 0.04 0.46zm-2.88 0c0,0.81 -0.01,0.49 0.16,1.16 0.05,0.2 -0.53,1.11 0.23,1.75 0.27,0.22 0.49,0.3 0.98,0.3 0.07,0.14 0.12,0.25 0.22,0.39 0.11,0.14 0.19,0.18 0.29,0.33 -0.05,0.2 -0.13,0.34 -0.15,0.56 -0.78,0 -1.77,0.71 -2.3,1.26 -0.86,0.89 -1.05,1.9 -1.05,3.17l9.76 0c0,-1.26 -0.19,-2.24 -1.03,-3.14 -0.52,-0.56 -1.55,-1.27 -2.33,-1.28 -0.02,-0.22 -0.11,-0.36 -0.15,-0.56 0.2,-0.29 0.17,-0.07 0.51,-0.71 0.48,0 0.66,-0.06 0.95,-0.27 0.81,-0.62 0.21,-1.57 0.26,-1.77 0.17,-0.68 0.16,-0.36 0.16,-1.16 0,-0.78 -0.4,-1.5 -0.9,-2 -0.9,-0.9 -1.55,-0.9 -2.71,-0.9 -1.07,0 -2.13,0.78 -2.59,1.73 -0.15,0.31 -0.3,0.71 -0.3,1.17z"/>
   <path class="fil0" d="M2.58 19.55c1.32,-0.19 2.29,0.85 2.31,2.11 0.01,0.73 0.01,1.36 -0.37,1.87 -0.28,0.38 -0.72,0.77 -1.38,0.85 -2.47,0.33 -2.74,-2.91 -1.95,-3.99 0.29,-0.4 0.71,-0.76 1.4,-0.85zm-0.95 -0.58c0,-0.95 -0.18,-1.89 0.47,-2.43 0.63,-0.51 1.62,-0.21 1.88,0.54 0.16,0.46 0.09,1.27 0.09,1.89 -0.47,-0.11 -1.01,-0.43 -1.95,-0.17 -0.2,0.06 -0.32,0.13 -0.49,0.17zm-1.63 2.44l0 1.12c0,1.39 1.31,2.7 2.7,2.7l0.31 0c1.39,0 2.7,-1.31 2.7,-2.7 0,-1.08 0.11,-1.8 -0.57,-2.69 -0.29,-0.38 -0.25,-0.16 -0.25,-0.82 0.01,-1.11 0.14,-2.16 -0.44,-2.81 -0.55,-0.61 -0.92,-0.75 -1.74,-0.75 -0.66,0 -1.08,0.37 -1.41,0.72 -0.61,0.65 -0.47,1.66 -0.47,2.79 0,0.64 0.07,0.46 -0.23,0.84 -0.29,0.37 -0.59,0.97 -0.59,1.6z"/>
   <path class="fil0" d="M22.1 4.09c1.33,-0.19 2.29,0.85 2.31,2.11 0.01,0.73 0.01,1.36 -0.37,1.87 -0.28,0.38 -0.72,0.77 -1.38,0.86 -2.47,0.33 -2.74,-2.91 -1.95,-3.99 0.29,-0.4 0.71,-0.76 1.4,-0.85zm-0.95 -0.58c0,-0.95 -0.18,-1.89 0.47,-2.43 0.63,-0.51 1.62,-0.21 1.88,0.54 0.16,0.46 0.09,1.27 0.09,1.89 -0.47,-0.11 -1.01,-0.43 -1.95,-0.17 -0.2,0.06 -0.32,0.13 -0.49,0.17zm-1.63 2.44l0 1.12c0,1.39 1.31,2.7 2.69,2.7l0.31 0c1.39,0 2.7,-1.31 2.7,-2.7 0,-1.08 0.11,-1.8 -0.57,-2.69 -0.29,-0.38 -0.25,-0.16 -0.25,-0.82 0,-0.37 0,-0.75 0,-1.12 0,-0.84 -0.04,-1.23 -0.44,-1.69 -0.55,-0.61 -0.92,-0.75 -1.74,-0.75 -0.65,0 -1.08,0.37 -1.41,0.72 -0.61,0.65 -0.47,1.66 -0.47,2.79 0,0.64 0.07,0.46 -0.23,0.84 -0.29,0.37 -0.59,0.97 -0.59,1.6z"/>
   <path class="fil1" d="M0.84 10.99l6.75 0c0.14,-0.57 0.48,-1.06 0.73,-1.48 -0.19,-0.45 -1.12,-1.15 -1.87,-1.29l-0.12 0.21c-0.57,1.12 -2.14,1.41 -2.95,-0.07 -0.06,-0.11 -0.02,-0.05 -0.08,-0.14 -1.26,0.28 -2.28,1.38 -2.46,2.76z"/>
   <path class="fil2" d="M2.44 22.79c-0.08,-0.16 -0.44,-0.3 -0.59,-0.53 -0.55,-0.82 -0,-1.91 1,-1.91 0.97,0 1.56,1.06 1,1.91 -0.15,0.23 -0.51,0.37 -0.59,0.53l-0.03 0.81 -0.79 0 0 -0.81zm0.14 -3.23c-0.68,0.1 -1.11,0.46 -1.4,0.85 -0.79,1.07 -0.52,4.32 1.95,3.99 0.66,-0.09 1.1,-0.47 1.38,-0.85 0.38,-0.51 0.38,-1.14 0.37,-1.87 -0.01,-1.26 -0.98,-2.3 -2.31,-2.11z"/>
   <path class="fil2" d="M21.97 7.33c-0.1,-0.21 -0.94,-0.45 -0.8,-1.41 0.2,-1.36 2.2,-1.36 2.41,0 0.15,0.99 -0.75,1.24 -0.8,1.41l0 0.81 -0.81 0 0 -0.81zm0.14 -3.23c-0.68,0.1 -1.1,0.46 -1.4,0.85 -0.79,1.07 -0.52,4.32 1.95,3.99 0.66,-0.09 1.1,-0.47 1.38,-0.86 0.38,-0.51 0.38,-1.14 0.37,-1.87 -0.01,-1.26 -0.98,-2.3 -2.31,-2.11z"/>
   <path class="fil0" d="M12.47 21.2c0.46,-0.22 0.78,0.52 0.3,0.73 -0.44,0.19 -0.85,-0.47 -0.3,-0.73zm-0.27 -0.91c0,0.17 -0.33,0.25 -0.47,0.39 -0.14,0.14 -0.23,0.47 -0.39,0.47l-4.83 0 0 0.81 4.83 0c0.31,0 0.17,0.81 1.37,0.81 0.94,0 1.48,-1.23 0.84,-2.02 -0.07,-0.09 -0.19,-0.17 -0.28,-0.23 -0.13,-0.08 -0.26,-0.09 -0.26,-0.25l0 -1.58 -0.81 0 0 1.58z"/>
   <path class="fil0" d="M12.47 3.3c0.46,-0.22 0.78,0.52 0.3,0.73 -0.44,0.19 -0.85,-0.47 -0.3,-0.73zm-1.08 0.26c0,0.4 0.01,0.56 0.28,0.89 0.09,0.11 0.16,0.16 0.27,0.24 0.13,0.08 0.26,0.09 0.26,0.25l0 1.58 0.81 0c0,-2.36 -0.08,-1.42 0.47,-1.97 0.14,-0.14 0.23,-0.47 0.39,-0.47l4.83 0 0 -0.81 -4.83 0c-0.3,0 -0.19,-0.81 -1.37,-0.81 -0.56,0 -1.12,0.56 -1.12,1.12z"/>
   <path class="fil3" d="M19.56 16.36c0.08,-0.08 0.02,-0.06 0.17,-0.08 0.17,-0.02 0.11,-0 0.24,0.05l-0.04 -0.46 0.82 -0c0.04,0.64 0.2,1.15 0.81,1.22l0 -0.4 0.81 0 0 0.41c0.13,0.01 0.54,0.26 0.39,-0.89 -0.3,-2.22 -3.34,-2.56 -4.41,-1.05 -0.21,0.3 -0.38,0.61 -0.43,1.04 -0.03,0.22 -0.03,0.45 0.01,0.67 0.06,0.36 0.09,0.25 0.43,0.22 0.13,-0.58 0.5,-0.96 0.97,-1.15 0.12,0.12 0.17,0.29 0.24,0.42z"/>
   <path class="fil4" d="M4.07 2.88l0.44 -0.03 -0.03 -0.4 0.82 -0c0.04,0.64 0.2,1.15 0.81,1.22l0 -0.4 0.81 0 0 0.41 0.41 0.06c-0,-1.01 -0.09,-1.42 -0.59,-2.06 -0.84,-1.09 -2.8,-1.12 -3.68,-0.03 -0.49,0.61 -0.62,1.1 -0.62,2.1l0.45 -0.08c0.13,-0.57 0.5,-0.95 0.97,-1.14l0.2 0.37z"/>
   <path class="fil5" d="M19.97 16.33c-0.12,-0.05 -0.07,-0.07 -0.24,-0.05 -0.16,0.02 -0.09,-0 -0.17,0.08l0.13 0.27c-0.61,0.46 -0.57,0.33 -0.57,1.53 0,0.78 0.02,1.24 0.52,1.56 0.49,0.32 1.18,0.23 1.54,-0.11 0.42,-0.39 0.38,-1 0.38,-1.71 -1.05,-0.05 -1.33,-0.69 -1.59,-1.58z"/>
   <path class="fil5" d="M4.51 2.85l-0.44 0.03 0.17 0.33c-0.61,0.46 -0.57,0.33 -0.58,1.53 -0,0.78 0.02,1.24 0.52,1.56 0.49,0.32 1.18,0.23 1.54,-0.11 0.42,-0.39 0.38,-1 0.38,-1.71 -1.03,-0.05 -1.39,-0.71 -1.6,-1.63z"/>
   <polygon class="fil6" points="10.97,12.2 11.19,12.21 14.04,12.21 14.23,12.2 14.06,10.58 11.17,10.58 "/>
   <polygon class="fil6" points="11.16,14.65 14.04,14.65 14.25,13.04 11,13.02 "/>
   <path class="fil0" d="M22.24 5.74c0.46,-0.22 0.78,0.52 0.3,0.73 -0.44,0.19 -0.85,-0.46 -0.3,-0.73zm-0.27 1.58l0 0.81 0.81 0 -0 -0.81c0.04,-0.17 0.95,-0.42 0.8,-1.41 -0.2,-1.36 -2.2,-1.36 -2.41,0 -0.14,0.96 0.7,1.21 0.8,1.41z"/>
   <path class="fil0" d="M2.71 21.2c0.46,-0.22 0.78,0.52 0.3,0.73 -0.44,0.19 -0.85,-0.46 -0.3,-0.73zm-0.27 1.58l0 0.81 0.79 0 0.03 -0.81c0.08,-0.16 0.44,-0.29 0.59,-0.53 0.56,-0.85 -0.03,-1.91 -1,-1.91 -1,0 -1.55,1.09 -1,1.91 0.15,0.23 0.52,0.37 0.59,0.53z"/>
   <path class="fil7" d="M22.27 21.76c-0.11,0.18 -0.19,1.09 -0.23,1.31 -0.06,0.44 -0.14,0.9 -0.19,1.34l2.52 0c-0.17,-1.26 -1.09,-2.36 -2.11,-2.65z"/>
   <path class="fil7" d="M18.45 21.76c-0.58,0.11 -1.16,0.67 -1.42,0.98 -0.36,0.42 -0.64,0.98 -0.74,1.68l2.53 -0 -0.37 -2.65z"/>
   <path class="fil6" d="M8.16 12.21l2.02 0 0.14 -1.63 -1.63 0c-0.32,0.19 -0.5,1.2 -0.54,1.63z"/>
   <path class="fil6" d="M14.89 14.65l1.64 -0c0.29,-0.16 0.49,-1.22 0.53,-1.63l-2.02 0 -0.15 1.63z"/>
   <path class="fil6" d="M15.06 12.21l2 0c-0.04,-0.41 -0.24,-1.47 -0.53,-1.63l-1.65 0 0.18 1.63z"/>
   <path class="fil6" d="M8.7 14.65l1.64 0 -0.17 -1.63 -2 -0c0.04,0.4 0.24,1.47 0.53,1.63z"/>
   <path class="fil6" d="M11.4 9.76l2.45 0.01c-0.19,-0.6 -0.65,-1.62 -1.23,-1.62 -0.58,0 -1.04,1.02 -1.22,1.62z"/>
   <path class="fil6" d="M13.83 15.47l-2.43 -0.01c0.17,0.6 0.63,1.62 1.21,1.62 0.58,-0 1.04,-1.02 1.22,-1.62z"/>
   <polygon class="fil7" points="18.91,24.41 19.12,24.41 21.56,24.41 21.79,24.4 20.32,22.96 "/>
   <path class="fil5" d="M5.51 7.23c-0.64,0.11 -0.61,0.11 -1.25,0 -0.1,0.29 -0.26,0.54 -0.1,0.87 0.3,0.59 1.15,0.59 1.44,0 0.16,-0.32 0,-0.58 -0.1,-0.87z"/>
   <path class="fil4" d="M6.76 6.12c-0.23,0.27 -0.23,0.44 -0.52,0.63l0.16 0.62 0.92 0.26 -0 -1.6 -0.56 0.08z"/>
   <path class="fil4" d="M2.44 7.64l0.91 -0.29 0.2 -0.6c-0.33,-0.21 -0.31,-0.36 -0.55,-0.64l-0.56 -0.06 0 1.59z"/>
   <path class="fil6" d="M14.68 9.77l1.36 0c-0.35,-0.45 -1.12,-1.14 -1.88,-1.32 0.2,0.48 0.37,0.77 0.52,1.32z"/>
   <path class="fil6" d="M9.18 9.77l1.36 0c0.16,-0.55 0.32,-0.84 0.53,-1.32 -0.76,0.18 -1.53,0.87 -1.88,1.32z"/>
   <path class="fil6" d="M11.06 16.79c-0.2,-0.48 -0.37,-0.77 -0.52,-1.32l-1.36 0c0.35,0.45 1.12,1.14 1.88,1.32z"/>
   <path class="fil6" d="M14.16 16.79c0.77,-0.18 1.52,-0.87 1.88,-1.32l-1.36 0c-0.16,0.55 -0.32,0.85 -0.53,1.32z"/>
   <path class="fil5" d="M20.34 21.78c0.21,-0.13 0.35,-0.32 0.53,-0.49 0.29,-0.28 0.24,-0.2 0.09,-0.63 -0.64,0.11 -0.61,0.11 -1.25,0 -0.14,0.42 -0.19,0.35 0.09,0.63 0.18,0.18 0.32,0.37 0.53,0.5z"/>
   <path class="fil1" d="M12.47 21.2c-0.55,0.27 -0.14,0.92 0.3,0.73 0.48,-0.21 0.16,-0.95 -0.3,-0.73z"/>
   <path class="fil1" d="M12.47 3.3c-0.55,0.27 -0.14,0.92 0.3,0.73 0.48,-0.21 0.16,-0.95 -0.3,-0.73z"/>
   <path class="fil7" d="M2.71 21.2c-0.55,0.27 -0.14,0.92 0.3,0.73 0.48,-0.21 0.16,-0.95 -0.3,-0.73z"/>
   <path class="fil7" d="M22.24 5.74c-0.55,0.27 -0.14,0.92 0.3,0.73 0.48,-0.21 0.16,-0.95 -0.3,-0.73z"/>
   <path class="fil5" d="M2.85 5.29l0 -0.81c-0.54,0.09 -0.54,0.71 -0,0.81z"/>
   <path class="fil5" d="M18.3 18.72l0 -0.81c-0.54,0.09 -0.54,0.71 -0,0.81z"/>
   <path class="fil5" d="M22.38 18.72c0.54,-0.1 0.54,-0.72 0,-0.81l-0 0.81z"/>
   <path class="fil5" d="M6.92 5.29c0.54,-0.09 0.54,-0.72 0,-0.81l-0 0.81z"/>
   <path class="fil8" d="M19.4 22.69c0.16,-0.08 0.25,-0.17 0.34,-0.31 -0.09,-0.16 -0.27,-0.34 -0.44,-0.42l0.1 0.73z"/>
   <path class="fil8" d="M20.94 22.38l0.3 0.33 0.15 -0.74c-0.16,0.07 -0.13,0.07 -0.25,0.19 -0.1,0.1 -0.12,0.11 -0.19,0.23z"/>
  </g>
 </g>
</svg>
