<?xml version="1.0" encoding="UTF-8"?>
<!DOCTYPE svg PUBLIC "-//W3C//DTD SVG 1.1//EN" "http://www.w3.org/Graphics/SVG/1.1/DTD/svg11.dtd">
<!-- Creator: CorelDRAW 2021 (64-Bit) -->
<svg xmlns="http://www.w3.org/2000/svg" xml:space="preserve" width="12.3481mm" height="12.3mm" version="1.1" style="shape-rendering:geometricPrecision; text-rendering:geometricPrecision; image-rendering:optimizeQuality; fill-rule:evenodd; clip-rule:evenodd"
viewBox="0 0 988.84 984.99"
 xmlns:xlink="http://www.w3.org/1999/xlink"
 xmlns:xodm="http://www.corel.com/coreldraw/odm/2003">
 <defs>
  <style type="text/css">
   <![CDATA[
    .fil0 {fill:white}
   ]]>
  </style>
 </defs>
 <g id="Layer_x0020_1">
  <metadata id="CorelCorpID_0Corel-Layer"/>
  <g id="_1836040300720">
   <path class="fil0" d="M554.29 247.22c71.86,0 84.35,93.1 25.77,118.47 -37.49,16.23 -85.15,-10.36 -85.12,-56.66 0.02,-32.72 25.85,-61.81 59.35,-61.81zm-554.29 255.03l0 -382.83c0.05,-21.29 5.34,-33.63 11.25,-48.28 15.17,-37.58 63.75,-71.14 106.56,-71.14l506.01 0c57.92,0 117.81,54.22 117.81,119.74l0 382.41c0,23.03 -10.14,47.32 -22.58,64.33 -18.56,25.36 -53.21,50.63 -91.3,51.62 -74.86,1.94 -152.76,-0.07 -227.97,-0.07 -71.78,0 -49.38,-7.42 -89.42,26.47l-131.17 112.17c-29.5,26.16 -55.58,2.34 -55.58,-18.89l0 -119.74c-69.91,0 -123.55,-57.83 -123.6,-115.78zm309.01 -200.95c0,-27.37 35.44,-54.08 54.08,-54.08 20.03,0 38.98,1.92 53.33,20.06 22.24,28.08 21.41,61.62 -4.52,86.69 -33.31,32.2 -102.9,20.12 -102.9,-52.67zm-125.53 -54.08c41.06,0 66.04,33.67 63.01,64.91 -7.94,81.51 -122.4,73.77 -122.36,-3.09 0.02,-32.72 25.86,-61.81 59.35,-61.81z"/>
   <path class="fil0" d="M803.43 529.19c0,20.53 -7.33,46.56 -14.13,61.19 -6.14,13.22 -12.7,23.46 -22.06,33.95 -16.22,18.18 -29.26,30.25 -53.26,41.38 -16.85,7.81 -39.29,14.13 -63.12,14.13l-280.04 0 0 63.74c0,51.76 32.92,90.83 67.58,108.17 24.17,12.11 37.67,13.5 73.41,13.5 29.61,0 59.23,0 88.84,0 18.7,0 72.71,-4.6 83.48,3.43l96.63 81.05c11.92,10.63 39.24,35.27 53.58,35.27 17.31,0 30.9,-14.94 30.9,-32.83l0 -86.91c67.46,0 123.6,-54.86 123.6,-121.67l0 -251.08c0,-65.99 -56.44,-121.67 -123.6,-121.67l-61.81 0 0 158.37z"/>
  </g>
 </g>
</svg>
