<?xml version="1.0" encoding="UTF-8"?>
<!DOCTYPE svg PUBLIC "-//W3C//DTD SVG 1.1//EN" "http://www.w3.org/Graphics/SVG/1.1/DTD/svg11.dtd">
<!-- Creator: CorelDRAW 2021 (64-Bit) -->
<svg xmlns="http://www.w3.org/2000/svg" xml:space="preserve" width="16.2409mm" height="16.6136mm" version="1.1" style="shape-rendering:geometricPrecision; text-rendering:geometricPrecision; image-rendering:optimizeQuality; fill-rule:evenodd; clip-rule:evenodd"
viewBox="0 0 207.48 212.24"
 xmlns:xlink="http://www.w3.org/1999/xlink"
 xmlns:xodm="http://www.corel.com/coreldraw/odm/2003">
 <defs>
  <style type="text/css">
   <![CDATA[
    .fil0 {fill:#0E5706;fill-rule:nonzero}
   ]]>
  </style>
 </defs>
 <g id="Layer_x0020_1">
  <metadata id="CorelCorpID_0Corel-Layer"/>
  <g id="_1835909244000">
   <path class="fil0" d="M180.6 0.45c-5.14,1.66 -8.84,6.84 -8.84,12.32 0,2.16 1.2,5.77 2.45,7.38l0.79 1 -13.36 20.03c-12.65,19 -13.36,19.99 -14.35,19.74 -0.58,-0.17 -2.24,-0.29 -3.73,-0.25 -2.99,0.04 -5.52,1.04 -7.92,3.03l-1.41 1.2 -8.92 -4.52 -8.96 -4.56 0 -2.78c0,-5.02 -2.53,-9.13 -7.01,-11.32 -8.46,-4.15 -18.13,1.82 -18.21,11.24 0,1.7 0.25,3.44 0.75,4.69l0.79 2.03 -11.41 11.41 -11.41 11.41 -1.41 -0.75c-2.16,-1.2 -7.84,-1.08 -10.41,0.17 -4.48,2.24 -7.09,6.3 -7.26,11.28l-0.08 3.07 -8.92 4.48 -8.96 4.48 -1.82 -1.41c-2.9,-2.2 -5.1,-2.86 -8.63,-2.65 -7.47,0.5 -12.32,6.01 -11.86,13.36 0.83,12.98 18.33,16.26 24.02,4.52 0.62,-1.29 1,-2.99 1.12,-5.1l0.17 -3.15 8.92 -4.48 8.88 -4.44 1.54 1.2c3.03,2.41 4.15,2.78 8.17,2.78 3.23,0 4.02,-0.16 5.81,-1.12 4.36,-2.32 6.84,-6.39 6.84,-11.32 0,-2.03 -0.29,-3.48 -0.87,-4.77l-0.83 -1.83 11.36 -11.36 11.41 -11.41 1.99 0.79c3.11,1.2 7.3,1.04 10.16,-0.37 1.24,-0.58 2.74,-1.58 3.24,-2.12l0.95 -1.04 9.08 4.56 9.08 4.52 0 2.61c0,3.65 0.95,6.14 3.36,8.75 2.53,2.74 5.27,4.02 8.84,4.06 5.18,0.08 9.5,-2.53 11.74,-7.05 2.07,-4.23 1.45,-10.16 -1.37,-13.4 -0.5,-0.58 1.04,-3.07 12.61,-20.53l13.19 -19.87 4.11 0c3.53,0 4.44,-0.13 6.01,-0.95 7.72,-4.02 9.46,-14.1 3.48,-20.2 -1,-1.08 -2.74,-2.32 -3.82,-2.78 -2.41,-1.08 -6.72,-1.37 -9.08,-0.58l0 0zm6.72 6.47c5.97,2.9 3.86,12.03 -2.82,12.03 -5.97,0 -8.75,-7.01 -4.35,-11.08 2.03,-1.91 4.52,-2.24 7.18,-0.95zm-81.88 39.82c1.29,0 4.06,2.82 4.52,4.6 1.29,4.73 -3.24,9.29 -7.84,7.88 -4.93,-1.45 -6.43,-7.26 -2.78,-10.78 1.37,-1.33 3.61,-2.2 4.73,-1.87 0.33,0.08 0.91,0.16 1.37,0.16l0 0zm42.6 21.4c4.81,3.69 2.24,11.37 -3.82,11.45 -5.93,0.12 -8.71,-7.05 -4.31,-11.16 2.2,-2.07 5.6,-2.2 8.13,-0.29l0 0zm-81.67 19.66c4.36,2.2 4.56,8.63 0.37,11.2 -3.07,1.87 -7.51,0.5 -9.08,-2.82 -2.74,-5.56 3.15,-11.24 8.71,-8.38zm-39.9 20.37c2.86,1.78 3.9,6.06 2.12,8.67 -1.37,1.99 -2.9,2.99 -5.02,3.19 -6.55,0.75 -9.58,-8.46 -3.94,-11.9 1.87,-1.12 4.98,-1.12 6.84,0.04l0 0z"/>
   <path class="fil0" d="M172.38 45.12c-0.71,0.17 -1.82,0.91 -2.49,1.62l-1.24 1.29 -0.12 79.02 -0.08 78.97 -4.15 0 -4.15 0 0 -48.07 0 -48.03 -0.95 -1.41c-0.5,-0.79 -1.58,-1.74 -2.36,-2.12 -1.66,-0.83 -5.27,-1 -6.8,-0.29 -1.37,0.62 -2.07,2.36 -1.54,3.82 0.54,1.37 1.62,1.95 3.73,1.95l1.7 0 0 47.08 0 47.08 -9.96 0 -9.95 0 0.08 -46.99 0.12 -46.95 2.24 -0.21c2.53,-0.29 3.36,-1.04 3.36,-3.15 0,-1 -0.33,-1.62 -1.12,-2.24 -1,-0.79 -1.54,-0.91 -4.06,-0.75 -3.32,0.21 -4.85,1 -5.93,2.99 -0.66,1.2 -0.71,5.02 -0.83,49.28l-0.08 48.03 -3.94 0 -3.94 0 0 -57.99c0,-54.34 -0.04,-58.03 -0.75,-59.35 -0.37,-0.79 -1.24,-1.83 -1.87,-2.28 -1.12,-0.83 -1.7,-0.87 -13.56,-0.87 -11.86,0 -12.44,0.04 -13.56,0.87 -0.62,0.46 -1.49,1.49 -1.87,2.28 -0.71,1.33 -0.75,5.02 -0.75,59.35l0 57.99 -3.94 0 -3.9 0 -0.12 -38.08 -0.13 -38.04 -1 -1.41c-1.74,-2.41 -2.49,-2.53 -15.26,-2.53 -12.94,0 -13.65,0.12 -15.14,2.94 -0.71,1.33 -0.75,3.4 -0.75,39.24l0 37.87 -4.15 0 -4.15 0 0 -27.79c0,-30.69 0.13,-29.45 -2.61,-31.11 -1.24,-0.79 -2.16,-0.83 -13.36,-0.83 -11.2,0 -12.11,0.04 -13.36,0.83 -2.74,1.66 -2.61,0.42 -2.61,31.11l0 27.79 -2.45 0c-1.83,0 -2.7,0.21 -3.53,0.87 -1.49,1.16 -1.49,3.32 0,4.48l1.12 0.87 101.5 0 101.5 0 1.12 -0.87c1.49,-1.16 1.49,-3.32 0,-4.48 -0.83,-0.66 -1.7,-0.87 -3.53,-0.87l-2.45 0 0 -34.84c0,-34.3 0,-34.84 -0.83,-35.67 -1.04,-1.04 -2.94,-1.08 -4.19,-0.04l-1 0.79 -0.12 34.88 -0.08 34.88 -9.75 0 -9.75 0 0 -77.56 0 -77.56 9.75 0 9.75 0 0.08 36.75 0.12 36.75 1.16 1c1.41,1.2 2.32,1.25 3.77,0.13l1.08 -0.83 0 -38.12 0 -38.12 -1.29 -1.45c-0.71,-0.83 -1.95,-1.66 -2.78,-1.91 -1.87,-0.5 -22.15,-0.5 -23.93,0.04l0 -0zm-58.69 103.65l0 57.24 -9.95 0 -9.96 0 0 -57.24 0 -57.24 9.96 0 9.95 0 0 57.24zm-40.23 20.32l0 36.92 -9.96 0 -9.95 0 0 -36.92 0 -36.92 9.95 0 9.96 0 0 36.92zm-40.65 10.16l0 26.75 -9.75 0 -9.75 0 0 -26.75 0 -26.75 9.75 0 9.75 0 0 26.75z"/>
  </g>
 </g>
</svg>
