<?xml version="1.0" encoding="UTF-8"?>
<!DOCTYPE svg PUBLIC "-//W3C//DTD SVG 1.1//EN" "http://www.w3.org/Graphics/SVG/1.1/DTD/svg11.dtd">
<!-- Creator: CorelDRAW 2021 (64-Bit) -->
<svg xmlns="http://www.w3.org/2000/svg" xml:space="preserve" width="12.358mm" height="16.5054mm" version="1.1" style="shape-rendering:geometricPrecision; text-rendering:geometricPrecision; image-rendering:optimizeQuality; fill-rule:evenodd; clip-rule:evenodd"
viewBox="0 0 302.2 403.62"
 xmlns:xlink="http://www.w3.org/1999/xlink"
 xmlns:xodm="http://www.corel.com/coreldraw/odm/2003">
 <defs>
  <style type="text/css">
   <![CDATA[
    .fil0 {fill:#0E5706}
   ]]>
  </style>
 </defs>
 <g id="Layer_x0020_1">
  <metadata id="CorelCorpID_0Corel-Layer"/>
  <path class="fil0" d="M124.8 12.17c10.25,-0.47 44.32,-0.77 52.93,0.26 0.72,1.19 0.37,-0.12 1.01,2.61 1.23,5.25 -1.01,9.48 1.57,18.17 6.13,2.17 12.51,1.53 20.28,1.48 8.4,-0.05 14.13,-2.34 14.13,7.53 0,23.76 2.69,28.68 -7.84,28.68l-111.24 0c-10.53,0 -7.84,-4.82 -7.84,-28.68 0,-15.07 17.6,-3.08 34.42,-9.01 2.64,-8.96 -0.24,-16.12 2.57,-21.05zm102.4 49.05l-0.19 -15.95 48.25 0.14c11,1.46 14.7,9.6 14.69,21.99l-0.02 225.65c0,12.48 -3.91,28.65 10.66,23.44 2.6,-9.32 1.08,-156.22 1.08,-178.75 0,-16.42 2.24,-76.36 -2.46,-87.05 -10.61,-24.15 -42.55,-17.69 -72.37,-17.69 -4.76,-2.6 -4.22,-7.85 -12.72,-9.55 -5.76,-1.16 -16.37,-0.44 -22.72,-0.54 -4.77,-22.92 4.79,-22.64 -40.12,-22.64 -7.08,0 -25.03,-0.97 -30.55,0.91 -10.64,3.64 -7.21,10.37 -9.57,21.72 -6.37,0.1 -15.85,-0.56 -21.77,0.37 -9.42,1.48 -8.66,6.97 -13.66,9.72 -13.59,0 -37.49,-1.37 -49.73,0.33 -33.27,4.65 -25.1,46.78 -25.1,77.13l-0.01 256.07c-0.09,42.66 28.23,36.73 65.39,36.73 34.28,0 68.56,0 102.85,0 33.6,0 68.39,0.88 101.84,-0 15.48,-0.41 26.42,-9.04 29.7,-21.69 1.84,-7.07 1.75,-43.53 -0.04,-50.04 -14.32,-6.36 -10.74,11.04 -10.69,32.91 0.04,17.06 -2.45,26.75 -20.01,27.13 -58.55,1.26 -129.88,-0.01 -190,-0.01 -54.28,0 -67.35,7.08 -67.3,-28.16l0 -285.45c-0,-40.54 6.84,-33.06 63.46,-33.06l-0.03 16.52c-55.25,-0 -47.14,-6.79 -47.14,61.67 0,6.62 -2.23,21.62 3.16,23.91 10.63,4.51 8.59,-10.57 8.58,-17.61 -0.01,-16.2 -1.42,-40.48 0.36,-55.72l34.71 -0.46c3.58,1.65 0.69,-0.06 3.32,2.49 9.31,9.02 8.96,7.11 29.22,7.11 12.02,0 99.99,0.67 105.26,-0.42 9.18,-1.89 8.85,-8.2 13.33,-9.15l34.71 0.08c1.67,14.54 0.36,228.95 0.36,271.21l-0.31 15.63c-0.5,1.96 -0.37,1.5 -1.1,2.57l-218.45 0.45c-2.26,-4.74 -1.41,-9.75 -1.4,-15.51l0.05 -178.47c-0.08,-12.98 -11.88,-14.1 -11.83,1.05 0.09,28.05 -0.82,187.39 0.4,193.55 2.03,10.23 9.75,11.15 21.26,11.1l194.15 -0.01c33,0 28.97,-3.57 28.97,-35.62l0.02 -260.31c-0.09,-25.37 -24.39,-16.26 -46.47,-17.7zm-139.94 270.13l23.09 0c11.86,0 12.52,-11.81 0,-11.81l-23.09 0c-12.92,0 -11.45,11.81 0,11.81zm52.47 0l23.09 0c11.56,0 13.06,-11.81 0,-11.81l-23.09 0c-13.07,0 -11.57,11.81 0,11.81zm47.46 -11.19c-4.13,1.85 -9.34,11.36 8.15,11.23 4.99,-0.04 22.35,0.82 25.74,-1 0.74,-0.4 10.65,-11.02 -8.9,-10.88 -5.31,0.04 -21.43,-0.95 -24.99,0.65zm-71.59 -158.19c17.73,0 63.32,1.06 77.99,-0.88 1.94,-4.19 2,-5.87 0.15,-10.08 -17.06,-2.59 -57.68,-1 -77.23,-0.97 -4.61,0 -8.93,0.04 -9.24,5.6 -0.28,5.26 3.18,6.33 8.32,6.33zm-39.49 -47.44c-7.19,2.96 -5.18,9.88 1.03,11.03l149.84 -0.41c6.07,-2.32 4.26,-9.94 -1.5,-11.03 -4.26,-0.8 -16.63,-0.18 -21.72,-0.18 -18.8,0 -124.17,-0.85 -127.65,0.58zm66.71 119.98l16.61 -0.47 0.39 54.89 -17.05 0.05 0.06 -54.46zm-52.47 28.51l16.46 -0.41 0.72 26.37 -17.26 -0.03 0.09 -25.93zm93 25.46l-11.63 0.37c-0.12,-14.6 -0.05,-28.84 -0.02,-43.03 0.04,-18.47 -1.5,-23.77 -20.41,-23.77 -18.12,0 -20.48,4.75 -20.42,22.73 0.05,14.54 0.09,29.13 -0.01,43.66l-11.64 0.44c-0.05,-7.02 0.77,-22.67 -0.6,-28.19 -2.16,-8.71 -9.88,-10.06 -19.81,-10.06 -24.19,-0 -20.2,9.85 -20.44,37.82 -4.05,0.91 -9.38,-0.11 -12.37,1.25 -3.26,1.48 -4.45,7.21 -0.96,9.84 4.2,3.15 129.47,1.34 143.95,1.34 5.08,0 24.52,0.87 27.82,-0.91 3.45,-1.86 3.81,-7.73 0.42,-9.91 -2.75,-1.76 -8.84,-0.65 -13.05,-1.6 -0.09,-10.64 1.39,-36.07 -1.26,-44.07 -11.82,-4.45 -10.61,4.56 -10.58,15.09 0.02,9.79 0.09,19.64 -0.04,29.43l-17.16 0.11 1.36 -85.4 15.25 1.66c2.66,9.32 -4.75,31.2 11.15,24.13 1.45,-4.21 5.2,-30.57 -6.1,-36.5 -3.21,-1.68 -28.85,-6.66 -32.81,8.07 -2.64,9.82 -0.52,72.22 -0.65,87.52z"/>
 </g>
</svg>
